<svg style="padding-right: 25px;border-right: 1.5px solid white;width: 180px;padding-top: 12px;height: auto;padding-bottom: 12px;"
     xmlns="http://www.w3.org/2000/svg" viewBox="0 0 288.15 66.18">
    <defs>
        <style>.cls1-1{fill:#fff;}.cls2-2{fill:#008ec0;}</style>
    </defs>
    <title>Asset 2</title>
    <g id="Layer_2" data-name="Layer 2">
        <g id="Layer_1-2" data-name="Layer 1">
            <rect class="cls1-1" x="64.94" y="1.02" width="6.77" height="29.63"></rect>
            <polygon class="cls1-1"
                     points="96.69 7.54 89.07 7.54 89.07 30.65 82.3 30.65 82.3 7.54 74.67 7.54 74.67 1.02 96.69 1.02 96.69 7.54"></polygon>
            <path class="cls1-1"
                  d="M110,21.08V1h6.77V20.49c0,2.24,1.06,4.15,4.66,4.15s4.66-1.91,4.66-4.15V1h6.77V21.08c0,6.35-4.91,10.16-11.43,10.16S110,27.43,110,21.08"></path>
            <polygon class="cls1-1"
                     points="150.66 30.65 143.89 21.29 143.89 30.65 137.53 30.65 137.53 1.02 143.89 1.02 143.89 18.75 150.24 9.48 157.64 9.48 149.94 20.07 157.86 30.65 150.66 30.65"></polygon>
            <path class="cls1-1"
                  d="M172.88,9.06v7.2c-2.62-.42-6.35.63-6.35,4.83v9.57h-6.35V9.48h6.35v3.77c.85-2.84,3.68-4.19,6.35-4.19"></path>
            <path class="cls1-1"
                  d="M196.93,9.48V30.65h-6.35v-2a8,8,0,0,1-6.31,2.58c-5.55,0-10.12-4.87-10.12-11.18s4.57-11.18,10.12-11.18a8,8,0,0,1,6.31,2.58v-2Zm-6.35,10.58a5,5,0,1,0-10.08,0,5,5,0,1,0,10.08,0"></path>
            <path class="cls1-1"
                  d="M200.95,3.81a3.81,3.81,0,0,1,7.62,0,3.81,3.81,0,0,1-7.62,0m.63,5.67h6.35V30.65h-6.35Z"></path>
            <path class="cls1-1"
                  d="M232.91,17.65v13h-6.35V18.59a3.49,3.49,0,0,0-3.68-3.85c-2.33,0-3.94,1.36-3.94,4.36V30.65h-6.35V9.48h6.35v2c1.14-1.57,3.26-2.58,6.05-2.58,4.28,0,7.92,3,7.92,8.76"></path>
            <path class="cls1-1"
                  d="M248,25.57A5.53,5.53,0,0,0,252.08,24l5.08,2.92c-2.08,2.88-5.21,4.36-9.23,4.36-7.24,0-11.73-4.87-11.73-11.18A10.85,10.85,0,0,1,247.47,8.89c6.18,0,10.75,4.78,10.75,11.18a12.33,12.33,0,0,1-.25,2.54h-15c.8,2.2,2.75,3,5.08,3m3.9-7.71a4.77,4.77,0,0,0-9.1,0Z"></path>
            <path class="cls1-1"
                  d="M82.3,60.93h-11l-1.48,4.66H62.4L72.47,36h8.64L91.19,65.59H83.78Zm-2-6.35L76.79,43.7,73.32,54.58Z"></path>
            <path class="cls1-1"
                  d="M109.73,59.24c0,4.87-4.23,6.94-8.81,6.94-4.23,0-7.45-1.61-9.1-5L97.32,58a3.48,3.48,0,0,0,3.6,2.5c1.52,0,2.29-.47,2.29-1.31,0-2.33-10.41-1.1-10.41-8.42,0-4.61,3.89-6.94,8.3-6.94a9.26,9.26,0,0,1,8.25,4.53l-5.42,2.92a3.07,3.07,0,0,0-2.84-1.86c-1.1,0-1.78.42-1.78,1.19,0,2.41,10.41.8,10.41,8.63"></path>
            <path class="cls1-1"
                  d="M128.27,59.24c0,4.87-4.23,6.94-8.81,6.94-4.23,0-7.45-1.61-9.1-5l5.5-3.13a3.48,3.48,0,0,0,3.6,2.5c1.52,0,2.29-.47,2.29-1.31,0-2.33-10.41-1.1-10.41-8.42,0-4.61,3.9-6.94,8.3-6.94a9.26,9.26,0,0,1,8.25,4.53l-5.42,2.92a3.07,3.07,0,0,0-2.84-1.86c-1.1,0-1.78.42-1.78,1.19,0,2.41,10.41.8,10.41,8.63"></path>
            <path class="cls1-1"
                  d="M130.17,55a11.22,11.22,0,1,1,11.22,11.18A11.1,11.1,0,0,1,130.17,55m16.09,0a4.87,4.87,0,1,0-4.87,5,4.75,4.75,0,0,0,4.87-5"></path>
            <path class="cls1-1"
                  d="M155.15,55a11.2,11.2,0,0,1,20.79-5.76l-5.54,3.22a4.38,4.38,0,0,0-4.11-2.37,4.91,4.91,0,0,0,0,9.82,4.34,4.34,0,0,0,4.11-2.37l5.54,3.17a10.8,10.8,0,0,1-9.57,5.46A11,11,0,0,1,155.15,55"></path>
            <path class="cls1-1"
                  d="M177.83,38.75a3.81,3.81,0,1,1,3.81,3.81,3.85,3.85,0,0,1-3.81-3.81m.64,5.67h6.35V65.59h-6.35Z"></path>
            <path class="cls1-1"
                  d="M211.19,44.42V65.59h-6.35v-2a8,8,0,0,1-6.31,2.58c-5.55,0-10.12-4.87-10.12-11.18S193,43.83,198.53,43.83a8,8,0,0,1,6.31,2.58v-2ZM204.84,55a5,5,0,1,0-10.08,0,5,5,0,1,0,10.08,0"></path>
            <path class="cls1-1"
                  d="M223.89,50.52V58c0,1.82,1.57,2,4.36,1.82v5.76c-8.3.85-10.71-1.65-10.71-7.58V50.52h-3.39v-6.1h3.39v-4l6.35-1.9v5.93h4.36v6.1Z"></path>
            <path class="cls1-1"
                  d="M231.21,38.75A3.81,3.81,0,1,1,235,42.56a3.85,3.85,0,0,1-3.81-3.81m.63,5.67h6.35V65.59h-6.35Z"></path>
            <path class="cls1-1"
                  d="M241.79,55A11.22,11.22,0,1,1,253,66.18,11.1,11.1,0,0,1,241.79,55m16.09,0A4.87,4.87,0,1,0,253,60a4.75,4.75,0,0,0,4.87-5"></path>
            <path class="cls1-1"
                  d="M288.15,52.59v13H281.8V53.53a3.49,3.49,0,0,0-3.68-3.85c-2.33,0-3.94,1.36-3.94,4.36V65.59h-6.35V44.42h6.35v2c1.14-1.57,3.26-2.58,6.05-2.58,4.27,0,7.92,3,7.92,8.76"></path>
            <rect class="cls2-2" x="16.21" y="17.48" width="16.18" height="16.18"></rect>
            <rect class="cls2-2" x="0.02" y="1.3" width="16.18" height="16.18"></rect>
            <path class="cls2-2"
                  d="M23.4,49.93a7.25,7.25,0,0,1-7.24-7.24v-9.2H0v9.2a23.43,23.43,0,0,0,23.4,23.4h9.2V49.93Z"></path>
        </g>
    </g>
</svg>
