<svg width="92" height="47" viewBox="0 0 92 47" fill="none" xmlns="http://www.w3.org/2000/svg">
<g clip-path="url(#clip0_8828_243946)">
<path d="M17.4074 44.0347C16.5162 45.0344 15.3667 45.7828 14.0787 46.202C12.5456 46.7368 10.9287 47.0068 9.30063 47C7.60866 47.0509 5.93355 46.6591 4.44894 45.8653C3.0428 45.0757 1.91468 43.8889 1.21319 42.4612C0.40743 40.8232 -0.00727704 39.0282 0.000264175 37.2112V35.8004C-0.0577181 33.9515 0.296639 32.1125 1.03881 30.4105C1.67598 28.9671 2.74771 27.7469 4.1118 26.9118C5.53969 26.0763 7.17878 25.6478 8.84336 25.6749C11.3648 25.6598 13.3411 26.2335 14.7723 27.3959C16.2036 28.5584 17.0574 30.2604 17.3338 32.5021L13.0712 32.5286C12.8671 31.3409 12.4305 30.4748 11.7614 29.9301C10.9684 29.3455 9.98604 29.0594 8.99449 29.1245C8.33089 29.0943 7.67049 29.2312 7.07671 29.522C6.48293 29.8128 5.9757 30.2477 5.60374 30.7849C4.8287 31.8818 4.44119 33.5095 4.44119 35.668V36.9918C4.45669 39.168 4.892 40.807 5.74712 41.909C6.60223 43.0109 7.84745 43.5581 9.48276 43.5505C11.1284 43.5505 12.2987 43.2 12.9937 42.499L12.9704 38.9209L9.00612 38.9587L8.98674 35.8079L17.3532 35.7512L17.4074 44.0347Z" fill="#009BD8"/>
<path d="M53.5898 42.1434L45.9092 42.1964L44.4793 46.4818L39.8291 46.5121L47.5794 25.7089L51.6406 25.6824L59.7435 46.3835L55.0933 46.4137L53.5898 42.1434ZM47.0679 38.7393L52.3846 38.7052L49.672 30.9551L47.0679 38.7393Z" fill="#009BD8"/>
<path d="M65.4366 42.9037L74.7408 42.8432L74.764 46.2776L61.0809 46.3684L60.9375 25.6144L65.3164 25.5841L65.4366 42.9037Z" fill="#009BD8"/>
<path d="M87.606 40.7477C87.6231 40.3913 87.5508 40.0363 87.3955 39.7133C87.2402 39.3903 87.0065 39.1092 86.7147 38.8943C86.1283 38.4657 85.0743 38.0168 83.5526 37.5478C82.3083 37.1872 81.0986 36.7214 79.9371 36.1559C77.5138 34.8951 76.2944 33.188 76.2789 31.0345C76.2562 29.9587 76.5891 28.9043 77.2284 28.0275C77.9352 27.0949 78.8968 26.3753 80.003 25.951C81.2968 25.4368 82.6827 25.1796 84.0796 25.1945C85.4767 25.1611 86.8643 25.4271 88.1447 25.9737C89.275 26.4556 90.2404 27.243 90.927 28.2431C91.5943 29.2302 91.9451 30.389 91.9346 31.5716L87.5518 31.6019C87.5734 31.1886 87.5008 30.7758 87.3393 30.3932C87.1778 30.0106 86.9314 29.6677 86.6179 29.3892C85.8799 28.8345 84.9581 28.5651 84.0293 28.6327C83.1447 28.5867 82.2691 28.826 81.5375 29.3135C81.2632 29.5089 81.0404 29.7651 80.8875 30.0611C80.7345 30.357 80.6558 30.6842 80.6579 31.0156C80.6687 31.3628 80.7719 31.7013 80.9574 31.9977C81.1429 32.2942 81.4043 32.5384 81.7158 32.7063C82.682 33.2699 83.726 33.6954 84.8159 33.9697C87.3141 34.6858 89.1367 35.581 90.2838 36.6552C90.8447 37.1731 91.2888 37.7995 91.5877 38.4944C91.8867 39.1893 92.0338 39.9374 92.0198 40.691C92.0587 41.5081 91.8913 42.3221 91.5325 43.0614C91.1738 43.8007 90.6345 44.4427 89.9621 44.931C88.5774 45.9624 86.707 46.4856 84.3509 46.5007C82.8143 46.5309 81.2887 46.2421 79.8751 45.6535C78.6308 45.1627 77.5555 44.3362 76.775 43.2706C76.0528 42.2299 75.6741 40.9984 75.6899 39.7416L80.0844 39.7113C80.0999 42.0009 81.5104 43.1357 84.316 43.1155C85.1755 43.1585 86.0269 42.9361 86.7496 42.48C87.0312 42.2837 87.2579 42.0215 87.4089 41.7176C87.5598 41.4136 87.6303 41.0775 87.6138 40.7401" fill="#009BD8"/>
<path d="M25.1891 33.338C25.4549 32.9039 25.7766 32.5047 26.1463 32.1503L23.0035 28.7878C22.21 29.5284 21.537 30.383 21.0078 31.322L25.1891 33.338Z" fill="#63B347"/>
<path d="M32.8887 30.9627C33.3621 31.1753 33.805 31.4475 34.2062 31.7721L37.3567 28.4171C36.5217 27.7143 35.5806 27.1415 34.5666 26.7188L32.8887 30.9627Z" fill="#D09E28"/>
<path d="M40.1003 31.9726L35.9268 34.0037C36.1291 34.4645 36.2698 34.9489 36.3453 35.4448L40.9955 35.0174C40.8592 33.9706 40.5599 32.9502 40.108 31.9915" fill="#C21E33"/>
<path d="M35.6284 33.4137L39.8019 31.3939C39.2908 30.4608 38.6375 29.6089 37.8644 28.8672L34.7139 32.2222C35.0739 32.583 35.3851 32.9872 35.64 33.425" fill="#2C9946"/>
<path d="M24.36 36.311C24.36 36.2202 24.36 36.1294 24.36 36.0386L19.7098 35.6339C19.7098 35.8571 19.6865 36.084 19.6865 36.3147C19.6857 37.165 19.7911 38.0122 20.0004 38.8376L24.4878 37.5818C24.3984 37.164 24.3555 36.7378 24.36 36.311" fill="#48773C"/>
<path d="M35.0437 40.0366C34.7135 40.4291 34.3332 40.7786 33.9121 41.0768L36.3651 44.9537C37.2751 44.3513 38.0853 43.6166 38.7677 42.7751L35.0437 40.0366Z" fill="#F9B519"/>
<path d="M36.4266 36.311C36.4271 36.732 36.3803 37.1519 36.2871 37.563L40.7745 38.8225C40.9796 38.0004 41.0811 37.157 41.0768 36.311C41.0768 36.0966 41.0703 35.8836 41.0574 35.6718L36.4072 36.0992C36.4072 36.171 36.4072 36.2391 36.4072 36.311" fill="#E7422E"/>
<path d="M25.8013 40.1237L22.0889 42.8772C22.7806 43.7041 23.5973 44.4234 24.5108 45.0105L26.9638 41.1373C26.5328 40.8459 26.142 40.5013 25.8013 40.1123" fill="#F49B27"/>
<path d="M24.414 35.3805C24.4967 34.8769 24.6465 34.3861 24.8597 33.9205L20.7055 31.8931C20.2359 32.8677 19.9248 33.9077 19.7832 34.9758L24.414 35.3805Z" fill="#017EBB"/>
<path d="M35.791 45.3055L33.3264 41.4324C32.8766 41.6805 32.3961 41.8712 31.8965 41.9997L32.7606 46.4781C33.8212 46.2404 34.8381 45.8449 35.7755 45.3055" fill="#8F1839"/>
<path d="M36.0934 38.2022C35.9331 38.6644 35.7144 39.1053 35.4424 39.5147L39.1664 42.2569C39.778 41.3998 40.2535 40.4574 40.577 39.4617L36.0934 38.2022Z" fill="#00ACD7"/>
<path d="M31.2529 42.1321C30.7331 42.2068 30.2054 42.2145 29.6835 42.1548L28.8193 46.6331C29.3327 46.7058 29.8507 46.7425 30.3694 46.7428C30.9496 46.7432 31.5289 46.6977 32.1016 46.6066L31.2529 42.1321Z" fill="#EC6D28"/>
<path d="M30.7686 30.4407C31.276 30.4716 31.7774 30.5657 32.2605 30.7206L33.9346 26.4768C32.9159 26.1252 31.8483 25.9275 30.7686 25.8905V30.4407Z" fill="#E42330"/>
<path d="M29.0173 42.0413C28.5013 41.9245 28.0035 41.7414 27.537 41.4966L25.084 45.3698C26.0406 45.9009 27.076 46.2837 28.1531 46.5045L29.0173 42.0413Z" fill="#DF1B83"/>
<path d="M28.5714 30.7017C29.0651 30.5492 29.5771 30.4602 30.0944 30.4369V25.8981C29.0011 25.9266 27.9189 26.1193 26.8857 26.4692L28.5714 30.7017Z" fill="#1D3666"/>
<path d="M25.39 39.6017C25.0906 39.1682 24.8521 38.6975 24.6808 38.2022L20.1973 39.458C20.5316 40.496 21.0312 41.4763 21.6776 42.3628L25.39 39.6017Z" fill="#CE8B29"/>
<path d="M26.6496 31.6965C27.0459 31.393 27.4793 31.1388 27.94 30.94L26.2582 26.6886C25.2613 27.0968 24.3336 27.6503 23.5068 28.3302L26.6496 31.6965Z" fill="#00568A"/>
<path d="M5.58846 7.08821C5.59547 6.93943 5.56609 6.79117 5.50275 6.65567C5.43941 6.52018 5.34392 6.40136 5.22419 6.30903C4.8327 6.05249 4.40253 5.85723 3.94927 5.73033C3.43797 5.57027 2.93825 5.37694 2.45346 5.15162C1.19533 4.54644 0.566259 3.71179 0.566259 2.64768C0.561084 2.15058 0.726107 1.66603 1.03515 1.27089C1.38237 0.846712 1.84209 0.52358 2.36433 0.336637C2.98225 0.104719 3.63995 -0.00955017 4.30191 3.92954e-06C4.94758 -0.00594188 5.58709 0.123025 6.17748 0.378243C6.7002 0.59632 7.148 0.955958 7.46791 1.41462C7.7769 1.87075 7.93762 2.4073 7.92905 2.95405H5.60396C5.61579 2.78462 5.5885 2.61476 5.52411 2.457C5.45973 2.29923 5.35988 2.15758 5.23194 2.0425C4.96069 1.82276 4.61531 1.70949 4.26315 1.72477C3.91203 1.70687 3.56467 1.8026 3.27499 1.99711C3.16193 2.07382 3.06969 2.17623 3.00622 2.2955C2.94276 2.41477 2.90999 2.54732 2.91073 2.68172C2.91661 2.81421 2.95485 2.9434 3.02225 3.05854C3.08966 3.17368 3.18429 3.27143 3.29824 3.34364C3.73218 3.61707 4.20662 3.82373 4.70492 3.95639C5.27918 4.1267 5.83373 4.35488 6.35961 4.63722C7.40849 5.22727 7.93292 6.04048 7.93292 7.07686C7.94769 7.45304 7.86823 7.82706 7.70144 8.1665C7.53465 8.50594 7.28556 8.80055 6.97576 9.02479C6.20121 9.53779 5.27519 9.78767 4.34066 9.73588C3.60715 9.74643 2.8796 9.60595 2.20545 9.3236C1.62158 9.0911 1.12038 8.69658 0.763892 8.18888C0.435161 7.69791 0.263819 7.12245 0.271748 6.53598H2.62009C2.59844 6.74113 2.62181 6.94843 2.68862 7.14408C2.75544 7.33973 2.86418 7.51925 3.00761 7.67069C3.38136 7.95034 3.84793 8.08507 4.31741 8.04893C4.64226 8.06684 4.96436 7.98194 5.23582 7.80686C5.34592 7.72824 5.43434 7.62422 5.49317 7.50409C5.55201 7.38396 5.57942 7.25147 5.57296 7.11847" fill="#009BD8"/>
<path d="M16.8767 0.128601V6.33172C16.8935 6.97002 16.7342 7.60098 16.4155 8.15862C16.1135 8.66941 15.6594 9.07838 15.1135 9.33116C14.4753 9.614 13.7798 9.75236 13.079 9.73588C12.0651 9.7924 11.0669 9.47212 10.2851 8.83945C9.94118 8.52571 9.67046 8.14344 9.49127 7.71859C9.31208 7.29373 9.22861 6.83623 9.24652 6.37711V0.128601H11.5987V6.43007C11.6246 7.46644 12.118 7.98463 13.079 7.98463C13.2794 8.00064 13.481 7.97523 13.6706 7.91006C13.8603 7.84488 14.0337 7.74141 14.1796 7.60639C14.467 7.24642 14.6053 6.79415 14.5671 6.33929V0.128601H16.8767Z" fill="#009BD8"/>
<path d="M23.4803 7.08821C23.4873 6.93943 23.4579 6.79117 23.3946 6.65567C23.3313 6.52018 23.2358 6.40136 23.116 6.30903C22.7245 6.05265 22.2943 5.8574 21.8411 5.73033C21.3298 5.57027 20.8301 5.37694 20.3453 5.15162C19.0898 4.54644 18.462 3.71179 18.462 2.64768C18.4553 2.14626 18.6218 1.65727 18.9347 1.25954C19.2823 0.839952 19.7405 0.52086 20.2601 0.336637C20.878 0.104719 21.5357 -0.00955017 22.1976 3.9295e-06C22.8433 -0.0060589 23.4829 0.122913 24.0732 0.378243C24.5958 0.596502 25.0436 0.956102 25.3636 1.41462C25.6726 1.87075 25.8334 2.40729 25.8248 2.95405H23.4997C23.5101 2.78769 23.4829 2.62112 23.42 2.46619C23.357 2.31126 23.2599 2.17176 23.1354 2.05762C22.8607 1.83292 22.5091 1.71805 22.1511 1.73612C21.8 1.71822 21.4526 1.81395 21.163 2.00845C21.0499 2.08516 20.9577 2.18757 20.8942 2.30684C20.8307 2.42612 20.798 2.55867 20.7987 2.69307C20.8046 2.82555 20.8428 2.95475 20.9102 3.06989C20.9776 3.18503 21.0723 3.28278 21.1862 3.35499C21.6202 3.62841 22.0946 3.83508 22.5929 3.96773C23.1672 4.13805 23.7217 4.36622 24.2476 4.64856C25.2965 5.23862 25.8209 6.05183 25.8209 7.08821C25.8359 7.46535 25.7561 7.84034 25.5886 8.18051C25.4211 8.52069 25.1709 8.81572 24.8599 9.03992C24.0864 9.55211 23.1619 9.80196 22.2286 9.75101C21.4939 9.76175 20.765 9.62127 20.0895 9.33873C19.5056 9.10642 19.0043 8.71186 18.648 8.20401C18.3212 7.71112 18.1526 7.13429 18.1636 6.54732H20.5119C20.4903 6.75247 20.5137 6.95977 20.5805 7.15543C20.6473 7.35108 20.756 7.5306 20.8995 7.68204C21.2734 7.96136 21.7398 8.09606 22.2093 8.06028C22.5341 8.07819 22.8562 7.99329 23.1277 7.81821C23.2378 7.73959 23.3262 7.63557 23.385 7.51544C23.4439 7.3953 23.4713 7.26281 23.4648 7.12981" fill="#009BD8"/>
<path d="M34.7796 1.89498H31.8655V9.60349H29.5249V1.89498H26.665V0.128601H34.7796V1.89498Z" fill="#009BD8"/>
<path d="M40.6157 7.83712H37.4071L36.8452 9.60728H34.3496L37.9109 0.151306H40.112L43.7003 9.60728H41.1854L40.6157 7.83712ZM37.9768 6.07075H40.0655L39.0192 2.78385L37.9768 6.07075Z" fill="#009BD8"/>
<path d="M47.033 0.128601H44.7002V9.60349H47.033V0.128601Z" fill="#009BD8"/>
<path d="M56.9027 9.60349H54.5776L51.1365 3.71053V9.60349H48.7959V0.128601H51.1365L54.5699 6.02535V0.128601H56.9027V9.60349Z" fill="#009BD8"/>
<path d="M64.1538 7.83712H60.9491L60.3872 9.60728H57.8877L61.449 0.151306H63.65L67.2384 9.60728H64.7157L64.1538 7.83712ZM61.5071 6.07453H63.5958L62.5495 2.78763L61.5071 6.07453Z" fill="#009BD8"/>
<path d="M68.0791 9.60728V0.132385H71.5667C72.8145 0.132385 73.7639 0.355546 74.415 0.801869C74.7334 1.01839 74.9901 1.31047 75.161 1.6506C75.3318 1.99072 75.4112 2.3677 75.3915 2.74602C75.4045 3.18848 75.2846 3.62497 75.0466 4.00177C74.8 4.35518 74.4423 4.6207 74.0275 4.75825C74.4899 4.86287 74.9008 5.12088 75.19 5.48825C75.4611 5.8691 75.5972 6.32603 75.5775 6.7894C75.6061 7.18278 75.5393 7.57721 75.3824 7.94064C75.2255 8.30407 74.983 8.62627 74.6746 8.88106C74.0727 9.34755 73.1801 9.58458 71.9969 9.59215L68.0791 9.60728ZM70.4042 4.0812H71.6249C72.0105 4.11144 72.3954 4.01418 72.7177 3.80509C72.8313 3.70894 72.921 3.58883 72.9801 3.45384C73.0392 3.31885 73.0661 3.17253 73.0587 3.02592C73.0748 2.86456 73.0513 2.70177 72.9899 2.5511C72.9286 2.40044 72.8313 2.26626 72.706 2.15975C72.3647 1.95555 71.9657 1.86281 71.5667 1.89498H70.4042V4.0812ZM70.4042 5.59416V7.8636H71.9542C72.3028 7.8859 72.648 7.78522 72.9269 7.57992C73.0418 7.48069 73.1322 7.35732 73.1913 7.21909C73.2504 7.08086 73.2766 6.93136 73.2679 6.78183C73.2679 5.99257 72.8649 5.59542 72.0589 5.59038L70.4042 5.59416Z" fill="#009BD8"/>
<path d="M79.3592 7.84846H83.4358V9.60349H77.0186V0.128601H79.3592V7.84846Z" fill="#009BD8"/>
<path d="M90.5777 5.58281H86.8963V7.84846H91.2442V9.60349H84.5557V0.128601H91.2597V1.89498H86.8963V3.89208H90.5777V5.58281Z" fill="#009BD8"/>
<path d="M0.570312 22.422V13.1363H3.63168C4.42431 13.1236 5.20631 13.3154 5.89865 13.6923C6.56475 14.06 7.10928 14.606 7.46808 15.2658C7.84946 15.964 8.04657 16.744 8.04161 17.5352V17.9626C8.05244 18.7518 7.86342 19.5313 7.49134 20.232C7.13756 20.8911 6.60024 21.4391 5.94127 21.8131C5.26184 22.1964 4.49006 22.3962 3.70531 22.3918L0.570312 22.422ZM2.8644 14.8573V20.6973H3.65881C3.94944 20.7126 4.23948 20.6582 4.5036 20.5388C4.76772 20.4195 4.99789 20.2388 5.17399 20.0127C5.57004 19.4061 5.75613 18.6915 5.70489 17.974V17.573C5.75582 16.8591 5.56965 16.1482 5.17399 15.5457C4.99227 15.3172 4.75596 15.1357 4.48574 15.017C4.21552 14.8983 3.91963 14.8461 3.62393 14.8648L2.8644 14.8573Z" fill="#009BD8"/>
<path d="M14.6138 18.4808H11.2501V20.7011H15.2687V22.4221H8.95605V13.1363H15.2803V14.8648H11.2501V16.8241H14.6138V18.4808Z" fill="#009BD8"/>
<path d="M20.2945 19.8954L22.1895 13.1363H24.751L21.5501 22.4183H19.0429L15.8652 13.1363H18.4073L20.2945 19.8954Z" fill="#009BD8"/>
<path d="M31.0711 18.4808H27.7384V20.7011H31.726V22.4221H25.4443V13.1363H31.7376V14.8648H27.7384V16.8241H31.0711V18.4808Z" fill="#009BD8"/>
<path d="M34.8068 20.6973H38.4339V22.4183H32.5127V13.1363H34.8068V20.6973Z" fill="#009BD8"/>
<path d="M46.9635 17.9701C46.9806 18.7998 46.8044 19.6223 46.4481 20.3757C46.133 21.0419 45.6235 21.6024 44.9833 21.987C44.3293 22.3686 43.5789 22.5638 42.8171 22.5506C42.0615 22.5639 41.3165 22.3756 40.6625 22.006C40.0255 21.63 39.5149 21.0804 39.1938 20.4249C38.8325 19.7001 38.6444 18.9048 38.6435 18.0987V17.5919C38.6213 16.7638 38.7908 15.9415 39.1396 15.1863C39.4555 14.5205 39.9666 13.9611 40.6082 13.5788C41.2678 13.2084 42.0154 13.0135 42.7764 13.0135C43.5373 13.0135 44.285 13.2084 44.9445 13.5788C45.5831 13.9608 46.0946 14.5152 46.4171 15.175C46.7783 15.9165 46.9599 16.7293 46.948 17.5503L46.9635 17.9701ZM44.6384 17.5919C44.6909 16.8601 44.5311 16.1286 44.1773 15.4813C44.0371 15.2549 43.8374 15.0692 43.5989 14.9435C43.3604 14.8178 43.0918 14.7567 42.821 14.7665C41.6713 14.7665 41.0642 15.6074 40.9996 17.2893V17.9701C40.9569 18.6969 41.1176 19.4213 41.4647 20.0656C41.6012 20.2959 41.799 20.486 42.037 20.6158C42.275 20.7456 42.5445 20.8104 42.8171 20.8032C43.0861 20.8118 43.3525 20.7497 43.5884 20.6232C43.8243 20.4968 44.021 20.3107 44.1579 20.0845C44.51 19.4499 44.675 18.7324 44.6345 18.0117L44.6384 17.5919Z" fill="#009BD8"/>
<path d="M50.1681 19.2713V22.422H47.874V13.1363H51.6678C52.3346 13.1181 52.997 13.2474 53.6054 13.5145C54.1402 13.7551 54.5914 14.1429 54.9035 14.6303C55.2138 15.1237 55.3738 15.693 55.3647 16.2719C55.3804 16.6841 55.2987 17.0943 55.126 17.4707C54.9534 17.8472 54.6942 18.1799 54.3688 18.443C53.585 19.023 52.6149 19.3114 51.6329 19.2562L50.1681 19.2713ZM50.1681 17.5428H51.6717C52.0407 17.5681 52.4051 17.4513 52.687 17.2175C52.8077 17.0966 52.9012 16.9524 52.9613 16.794C53.0213 16.6357 53.0467 16.4668 53.0357 16.2983C53.0533 15.9198 52.9247 15.5486 52.6753 15.2582C52.549 15.1306 52.3962 15.0308 52.2271 14.9655C52.058 14.9003 51.8765 14.8711 51.6949 14.88H50.1681V17.5428Z" fill="#009BD8"/>
<path d="M59.2122 13.1363L61.3357 19.5966L63.4516 13.1363H66.4703V22.4183H64.1724V20.251L64.3932 15.8142L62.0953 22.4183H60.5762L58.2744 15.8067L58.4953 20.251V22.4183H56.2012V13.1363H59.2122Z" fill="#009BD8"/>
<path d="M73.1635 18.4808H69.7844V20.7011H73.8184V22.4221H67.4941V13.1363H73.83V14.8648H69.7844V16.8241H73.1635V18.4808Z" fill="#009BD8"/>
<path d="M82.529 22.4221H80.2504L76.879 16.6426V22.4221H74.585V13.1363H76.879L80.2427 18.912V13.1363H82.529V22.4221Z" fill="#009BD8"/>
<path d="M91.2565 14.8648H88.4044V22.4221H86.1103V14.8648H83.3086V13.1363H91.2565V14.8648Z" fill="#009BD8"/>
</g>
<defs>
<clipPath id="clip0_8828_243946">
<rect width="92" height="47" fill="white"/>
</clipPath>
</defs>
</svg>
