<svg width="202" height="47" viewBox="0 0 202 47" fill="none" xmlns="http://www.w3.org/2000/svg">
<g clip-path="url(#clip0_8828_243919)">
<path d="M50.2704 0.724365H45.5244V21.7671H50.2704V0.724365Z" fill="white"/>
<path d="M67.7822 5.35477H62.4404V21.7671H57.6945V5.35477H52.3457V0.724365H67.7822V5.35477Z" fill="white"/>
<path d="M77.1123 14.9707V0.710205H81.8582V14.5517C81.8582 16.1425 82.6013 17.499 85.125 17.499C87.6487 17.499 88.3918 16.1425 88.3918 14.5517V0.710205H93.1377V14.9707C93.1377 19.4804 89.6957 22.1862 85.125 22.1862C80.5543 22.1862 77.1123 19.4804 77.1123 14.9707Z" fill="white"/>
<path d="M105.617 21.7671L100.871 15.1198V21.7671H96.4121V0.724365H100.871V13.3159L105.322 6.73252H110.51L105.112 14.2534L110.664 21.7671H105.617Z" fill="white"/>
<path d="M121.193 6.43427V11.5476C119.356 11.2493 116.742 11.995 116.742 14.9778V21.7742H112.29V6.73254H116.742V9.40994C117.337 7.39301 119.321 6.43427 121.193 6.43427Z" fill="white"/>
<path d="M138.052 6.73252V21.7671H133.601V20.3468C133.042 20.9634 132.356 21.4474 131.591 21.7641C130.827 22.0809 130.002 22.2225 129.177 22.179C125.287 22.179 122.083 18.7204 122.083 14.2392C122.083 9.75791 125.287 6.29931 129.177 6.29931C130.002 6.2558 130.827 6.39749 131.591 6.71423C132.356 7.03098 133.042 7.51496 133.601 8.13158V6.71122L138.052 6.73252ZM133.601 14.2463C133.601 13.297 133.229 12.3866 132.566 11.7153C131.903 11.044 131.005 10.6669 130.068 10.6669C129.131 10.6669 128.232 11.044 127.569 11.7153C126.907 12.3866 126.535 13.297 126.535 14.2463C126.535 15.1956 126.907 16.106 127.569 16.7772C128.232 17.4485 129.131 17.8256 130.068 17.8256C131.005 17.8256 131.903 17.4485 132.566 16.7772C133.229 16.106 133.601 15.1956 133.601 14.2463Z" fill="white"/>
<path d="M140.871 2.7058C140.871 1.98818 141.152 1.29995 141.653 0.792511C142.154 0.285075 142.834 0 143.542 0C144.25 0 144.93 0.285075 145.431 0.792511C145.931 1.29995 146.213 1.98818 146.213 2.7058C146.213 3.42343 145.931 4.11166 145.431 4.61909C144.93 5.12653 144.25 5.4116 143.542 5.4116C142.834 5.4116 142.154 5.12653 141.653 4.61909C141.152 4.11166 140.871 3.42343 140.871 2.7058ZM141.313 6.73255H145.764V21.7671H141.313V6.73255Z" fill="white"/>
<path d="M163.275 12.5347V21.7671H158.824V13.2023C158.861 12.8443 158.821 12.4824 158.706 12.1417C158.591 11.8011 158.405 11.4898 158.159 11.2296C157.914 10.9694 157.615 10.7665 157.284 10.635C156.954 10.5034 156.599 10.4465 156.244 10.4681C154.61 10.4681 153.482 11.4339 153.482 13.5645V21.7671H149.03V6.73252H153.482V8.15289C154.281 7.0379 155.767 6.32062 157.723 6.32062C160.723 6.32062 163.275 8.45117 163.275 12.5418" fill="white"/>
<path d="M173.854 18.1594C174.38 18.1803 174.905 18.0921 175.397 17.9004C175.889 17.7087 176.337 17.4175 176.714 17.0445L180.275 19.1182C178.817 21.1635 176.623 22.2146 173.805 22.2146C168.729 22.2146 165.582 18.756 165.582 14.2747C165.546 13.2159 165.726 12.1611 166.111 11.1761C166.496 10.1911 167.078 9.2971 167.819 8.54998C168.561 7.80286 169.446 7.21866 170.421 6.83386C171.395 6.44907 172.437 6.27195 173.482 6.31357C177.814 6.31357 181.018 9.70825 181.018 14.2534C181.021 14.8592 180.963 15.4638 180.843 16.0573H170.327C170.888 17.6197 172.255 18.1878 173.889 18.1878L173.854 18.1594ZM176.623 12.7123C176.409 12.0248 175.985 11.4242 175.411 10.9979C174.837 10.5716 174.144 10.3417 173.433 10.3417C172.722 10.3417 172.029 10.5716 171.455 10.9979C170.881 11.4242 170.457 12.0248 170.243 12.7123H176.623Z" fill="white"/>
<path d="M57.6945 43.2715H49.9833L48.9457 46.581H43.7441L50.8035 25.5667H56.8603L63.9266 46.581H58.732L57.6945 43.2715ZM56.2925 38.7619L53.8319 31.0351L51.3993 38.7619H56.2925Z" fill="white"/>
<path d="M76.9235 42.0713C76.9235 45.5299 73.9582 47 70.7475 47C67.7822 47 65.5249 45.8566 64.3682 43.4491L68.2238 41.1907C68.3798 41.7349 68.7156 42.2082 69.1751 42.5315C69.6345 42.8547 70.1897 43.0081 70.7475 42.9661C71.813 42.9661 72.3528 42.6323 72.3528 42.0358C72.3528 40.3811 65.0552 41.2546 65.0552 36.056C65.0552 32.7821 67.7822 31.1274 70.8737 31.1274C72.0335 31.091 73.1818 31.3702 74.1989 31.936C75.2161 32.5018 76.0649 33.3335 76.6571 34.3445L72.8576 36.4182C72.6907 36.0241 72.4129 35.6886 72.0587 35.4536C71.7046 35.2186 71.29 35.0947 70.8667 35.0973C70.0955 35.0973 69.6188 35.3956 69.6188 35.9424C69.6188 37.6539 76.9165 36.5106 76.9165 42.0713" fill="white"/>
<path d="M89.9206 42.0713C89.9206 45.5299 86.9552 47 83.7445 47C80.7792 47 78.5219 45.8566 77.3652 43.4491L81.2209 41.2262C81.3768 41.7704 81.7127 42.2438 82.1721 42.567C82.6316 42.8902 83.1867 43.0437 83.7445 43.0017C84.8101 43.0017 85.3499 42.6679 85.3499 42.0713C85.3499 40.4166 78.0522 41.2901 78.0522 36.0916C78.0522 32.8176 80.7862 31.1629 83.8707 31.1629C85.0306 31.1265 86.1788 31.4058 87.196 31.9716C88.2132 32.5374 89.062 33.369 89.6542 34.38L85.8546 36.4538C85.6878 36.0596 85.4099 35.7241 85.0558 35.4891C84.7017 35.2542 84.287 35.1302 83.8637 35.1328C83.0926 35.1328 82.6159 35.4311 82.6159 35.9779C82.6159 37.6895 89.9136 36.5461 89.9136 42.1068" fill="white"/>
<path d="M91.2522 39.0602C91.2466 37.483 91.7032 35.9396 92.5641 34.6255C93.425 33.3114 94.6514 32.2857 96.0882 31.6782C97.5249 31.0708 99.1073 30.9089 100.635 31.2131C102.162 31.5174 103.567 32.274 104.669 33.3873C105.772 34.5005 106.524 35.9203 106.83 37.4667C107.136 39.0132 106.982 40.6168 106.387 42.0745C105.793 43.5321 104.784 44.7783 103.49 45.6551C102.196 46.5319 100.674 47 99.1177 47C98.084 47.0114 97.0585 46.8139 96.101 46.4193C95.1434 46.0247 94.2731 45.4407 93.5409 44.7015C92.8086 43.9624 92.2291 43.0828 91.8361 42.1142C91.4432 41.1456 91.2446 40.1074 91.2522 39.0602ZM102.532 39.0602C102.514 38.3803 102.298 37.721 101.913 37.1645C101.527 36.608 100.987 36.1791 100.362 35.9314C99.737 35.6837 99.0536 35.6283 98.3975 35.772C97.7414 35.9157 97.1416 36.2521 96.6732 36.7393C96.2049 37.2265 95.8886 37.8427 95.7641 38.511C95.6396 39.1792 95.7123 39.8699 95.9732 40.4965C96.2341 41.1231 96.6715 41.6579 97.2307 42.034C97.79 42.4101 98.4464 42.6108 99.1177 42.6111C99.5771 42.6235 100.034 42.5394 100.46 42.3641C100.886 42.1889 101.271 41.9262 101.592 41.5926C101.913 41.2591 102.162 40.8619 102.323 40.426C102.485 39.9902 102.556 39.5251 102.532 39.0602Z" fill="white"/>
<path d="M108.764 39.0601C108.768 37.3238 109.332 35.6365 110.371 34.2557C111.41 32.8749 112.867 31.8765 114.519 31.4129C116.17 30.9493 117.927 31.046 119.519 31.6882C121.111 32.3303 122.453 33.4827 123.338 34.9695L119.454 37.2563C119.184 36.725 118.769 36.2838 118.258 35.9853C117.747 35.6868 117.162 35.5437 116.573 35.5731C115.66 35.5731 114.785 35.9405 114.139 36.5945C113.494 37.2484 113.131 38.1353 113.131 39.0601C113.131 39.985 113.494 40.8719 114.139 41.5258C114.785 42.1798 115.66 42.5472 116.573 42.5472C117.163 42.5802 117.749 42.4386 118.261 42.1397C118.772 41.8409 119.187 41.3976 119.454 40.864L123.338 43.1153C122.666 44.3121 121.689 45.3037 120.508 45.986C119.328 46.6683 117.988 47.0161 116.629 46.9929C115.593 47.014 114.564 46.8235 113.603 46.4328C112.641 46.0421 111.768 45.4591 111.033 44.7187C110.299 43.9783 109.72 43.0957 109.33 42.1235C108.94 41.1513 108.747 40.1094 108.764 39.0601Z" fill="white"/>
<path d="M124.663 27.5196C124.663 26.9845 124.82 26.4614 125.113 26.0164C125.407 25.5714 125.824 25.2246 126.312 25.0198C126.8 24.815 127.337 24.7614 127.855 24.8658C128.373 24.9702 128.849 25.2279 129.223 25.6064C129.596 25.9848 129.851 26.4669 129.954 26.9918C130.057 27.5166 130.004 28.0607 129.802 28.5551C129.599 29.0495 129.257 29.4721 128.818 29.7694C128.379 30.0668 127.862 30.2254 127.334 30.2254C126.628 30.2181 125.953 29.9306 125.453 29.4248C124.954 28.9189 124.67 28.235 124.663 27.5196ZM125.112 31.5464H129.563V46.581H125.112V31.5464Z" fill="white"/>
<path d="M148.049 31.5464V46.581H143.598V45.1606C143.039 45.7772 142.353 46.2612 141.588 46.578C140.824 46.8947 139.999 47.0364 139.174 46.9929C135.284 46.9929 132.08 43.5343 132.08 39.053C132.08 34.5718 135.298 31.1274 139.174 31.1274C139.999 31.0839 140.824 31.2255 141.588 31.5423C142.353 31.859 143.039 32.343 143.598 32.9596V31.5393L148.049 31.5464ZM143.598 39.0601C143.598 38.1108 143.226 37.2004 142.563 36.5292C141.9 35.8579 141.002 35.4808 140.065 35.4808C139.128 35.4808 138.229 35.8579 137.566 36.5292C136.904 37.2004 136.532 38.1108 136.532 39.0601C136.532 40.0094 136.904 40.9198 137.566 41.5911C138.229 42.2623 139.128 42.6395 140.065 42.6395C141.002 42.6395 141.9 42.2623 142.563 41.5911C143.226 40.9198 143.598 40.0094 143.598 39.0601Z" fill="white"/>
<path d="M156.952 35.8785V41.1907C156.952 42.4833 158.053 42.6111 160.008 42.4833V46.5739C154.19 47.1776 152.5 45.4021 152.5 41.1907V35.8785H150.124V31.5464H152.5V28.7057L156.952 27.3563V31.5677H160.008V35.8998L156.952 35.8785Z" fill="white"/>
<path d="M162.083 27.5197C162.083 26.9839 162.24 26.4602 162.534 26.0149C162.829 25.5697 163.247 25.2229 163.735 25.0185C164.224 24.8141 164.762 24.7614 165.28 24.8669C165.799 24.9725 166.275 25.2316 166.648 25.6115C167.021 25.9913 167.274 26.4747 167.376 27.0006C167.477 27.5264 167.422 28.0708 167.218 28.565C167.013 29.0592 166.669 29.4808 166.228 29.7764C165.787 30.072 165.269 30.2283 164.74 30.2255C164.034 30.2181 163.359 29.9306 162.86 29.4248C162.36 28.9189 162.077 28.235 162.069 27.5197H162.083ZM162.511 31.5464H166.962V46.581H162.511V31.5464Z" fill="white"/>
<path d="M169.5 39.0602C169.495 37.4827 169.951 35.939 170.813 34.6248C171.674 33.3105 172.901 32.2848 174.338 31.6775C175.775 31.0703 177.358 30.9088 178.885 31.2137C180.413 31.5185 181.817 32.2758 182.92 33.3898C184.022 34.5037 184.774 35.9242 185.079 37.4711C185.384 39.018 185.229 40.6219 184.633 42.0794C184.038 43.5369 183.028 44.7826 181.733 45.6586C180.438 46.5346 178.916 47.0014 177.359 47C176.326 47.0104 175.301 46.8123 174.344 46.4172C173.387 46.0222 172.518 45.4381 171.786 44.699C171.055 43.9599 170.476 43.0806 170.084 42.1125C169.691 41.1444 169.493 40.1067 169.5 39.0602ZM180.78 39.0602C180.762 38.3806 180.547 37.7215 180.161 37.1652C179.775 36.6089 179.237 36.1799 178.612 35.9321C177.987 35.6842 177.304 35.6283 176.648 35.7714C175.992 35.9145 175.392 36.2503 174.924 36.7368C174.455 37.2232 174.138 37.8388 174.013 38.5066C173.888 39.1744 173.959 39.8648 174.219 40.4916C174.479 41.1183 174.915 41.6536 175.474 42.0306C176.032 42.4075 176.688 42.6094 177.359 42.6111C177.818 42.6235 178.275 42.5394 178.701 42.3641C179.127 42.1889 179.512 41.9262 179.833 41.5926C180.154 41.2591 180.403 40.8619 180.564 40.426C180.726 39.9902 180.797 39.5251 180.773 39.0602" fill="white"/>
<path d="M202 37.3486V46.581H197.548V38.0161C197.585 37.6582 197.545 37.2963 197.431 36.9556C197.316 36.6149 197.129 36.3036 196.884 36.0434C196.638 35.7832 196.34 35.5803 196.009 35.4488C195.678 35.3173 195.323 35.2604 194.968 35.2819C193.335 35.2819 192.206 36.2478 192.206 38.3783V46.581H187.755V31.5464H192.206V32.9667C193.006 31.8517 194.492 31.1345 196.448 31.1345C199.441 31.1345 202 33.265 202 37.3557" fill="white"/>
<path d="M22.7058 12.414H11.3633V23.9048H22.7058V12.414Z" fill="#008EC0"/>
<path d="M11.3562 0.923218H0.0136719V12.414H11.3562V0.923218Z" fill="#008EC0"/>
<path d="M16.404 35.4595C15.0584 35.4576 13.7686 34.9153 12.8171 33.9514C11.8657 32.9876 11.3304 31.6808 11.3285 30.3178V23.7841H0V30.3178C0.00556481 34.7235 1.73562 38.9471 4.81075 42.0624C7.88589 45.1778 12.0551 46.9304 16.404 46.9361H22.8534V35.4595H16.404Z" fill="#008EC0"/>
</g>
<defs>
<clipPath id="clip0_8828_243919">
<rect width="202" height="47" fill="white"/>
</clipPath>
</defs>
</svg>
