<svg xmlns="http://www.w3.org/2000/svg" viewBox="0 0 237.41 124.26">
    <defs>
        <style>
            .cls-1{fill:#009bd8;}.cls-2{fill:#63b347;}.cls-3{fill:#d09e28;}.cls-4{fill:#c21e33;}.cls-5{fill:#2c9946;}.cls-6{fill:#48773c;}.cls-7{fill:#f9b519;}.cls-8{fill:#e7422e;}.cls-9{fill:#f49b27;}.cls-10{fill:#017ebb;}.cls-11{fill:#8f1839;}.cls-12{fill:#00acd7;}.cls-13{fill:#ec6d28;}.cls-14{fill:#e42330;}.cls-15{fill:#df1b83;}.cls-16{fill:#1d3666;}.cls-17{fill:#ce8b29;}.cls-18{fill:#00568a;}
        </style>
    </defs>
    <title>Asset 2</title>
    <g id="Layer_2" data-name="Layer 2">
        <g id="Layer_1-2" data-name="Layer 1">
            <path class="cls-1"
                  d="M44.92,116.42a19.61,19.61,0,0,1-8.59,5.73A36.18,36.18,0,0,1,24,124.26a24.49,24.49,0,0,1-12.52-3,20.72,20.72,0,0,1-8.35-9A31.77,31.77,0,0,1,0,98.38l0-3.73A33.75,33.75,0,0,1,2.68,80.4a20.49,20.49,0,0,1,7.93-9.25,23,23,0,0,1,12.21-3.27q9.76-.06,15.3,4.55t6.61,13.5l-11,.07q-.79-4.71-3.38-6.87A10.66,10.66,0,0,0,23.21,77a10,10,0,0,0-8.75,4.39q-3,4.35-3,12.91l0,3.5q.06,8.63,3.37,13t9.64,4.34q6.37,0,9.06-2.78l-.06-9.46L23.24,103l-.05-8.33,21.59-.15Z"/>
            <path class="cls-1"
                  d="M138.29,111.42l-19.82.14-3.69,11.33-12,.08,20-55,10.48-.07,20.91,54.73-12,.08Zm-16.83-9,13.72-.09-7-20.49Z"/>
            <polygon class="cls-1"
                     points="168.86 113.43 192.87 113.27 192.93 122.35 157.62 122.59 157.25 67.72 168.55 67.64 168.86 113.43"/>
            <path class="cls-1"
                  d="M226.07,107.73a5.8,5.8,0,0,0-2.3-4.9q-2.27-1.7-8.16-3.56a57.68,57.68,0,0,1-9.33-3.68q-9.38-5-9.44-13.54a13.24,13.24,0,0,1,2.45-7.95,16.34,16.34,0,0,1,7.16-5.49,27.11,27.11,0,0,1,10.52-2,24.67,24.67,0,0,1,10.49,2.06,16.68,16.68,0,0,1,7.18,6,15.73,15.73,0,0,1,2.6,8.8l-11.31.08a7.4,7.4,0,0,0-2.41-5.85,9.76,9.76,0,0,0-6.68-2,10.42,10.42,0,0,0-6.43,1.8A5.53,5.53,0,0,0,208.14,82a5.29,5.29,0,0,0,2.73,4.47,30.38,30.38,0,0,0,8,3.34q9.67,2.84,14.11,7.1a14.33,14.33,0,0,1,4.48,10.67,13.21,13.21,0,0,1-5.31,11.21q-5.36,4.09-14.48,4.15a28,28,0,0,1-11.55-2.24,18.23,18.23,0,0,1-8-6.3,16.28,16.28,0,0,1-2.8-9.33l11.34-.08q.06,9.08,10.92,9a10.57,10.57,0,0,0,6.28-1.68,5.34,5.34,0,0,0,2.23-4.6"/>
            <path class="cls-2" d="M65,88.14A15.67,15.67,0,0,1,67.47,85l-8.11-8.89a27.82,27.82,0,0,0-5.15,6.7Z"/>
            <path class="cls-3" d="M84.87,81.86A15.45,15.45,0,0,1,88.27,84l8.13-8.87a27.66,27.66,0,0,0-7.2-4.49Z"/>
            <path class="cls-4"
                  d="M103.48,84.53,92.71,89.9a15.42,15.42,0,0,1,1.08,3.81l12-1.13a27.41,27.41,0,0,0-2.29-8"/>
            <path class="cls-5"
                  d="M91.94,88.34,102.71,83a27.64,27.64,0,0,0-5-6.68l-8.13,8.87a15.61,15.61,0,0,1,2.39,3.18"/>
            <path class="cls-6"
                  d="M62.86,96c0-.24,0-.48,0-.72l-12-1.07c0,.59-.06,1.19-.06,1.8a27.65,27.65,0,0,0,.81,6.67l11.58-3.32A15.64,15.64,0,0,1,62.86,96"/>
            <path class="cls-7" d="M90.43,105.85a15.72,15.72,0,0,1-2.92,2.75l6.33,10.25a27.82,27.82,0,0,0,6.2-5.76Z"/>
            <path class="cls-8"
                  d="M94,96a15.24,15.24,0,0,1-.36,3.31l11.58,3.33A27.5,27.5,0,0,0,106,96q0-.85-.05-1.69l-12,1.13c0,.19,0,.37,0,.56"/>
            <path class="cls-9"
                  d="M66.58,106.08,57,113.36A27.82,27.82,0,0,0,63.25,119l6.33-10.24a15.74,15.74,0,0,1-3-2.71"/>
            <path class="cls-10" d="M63,93.54a15.45,15.45,0,0,1,1.15-3.86L53.43,84.32a27.42,27.42,0,0,0-2.38,8.15Z"/>
            <path class="cls-11"
                  d="M92.36,119.78,86,109.54a15.56,15.56,0,0,1-3.69,1.5l2.23,11.84a27.39,27.39,0,0,0,7.78-3.1"/>
            <path class="cls-12" d="M93.14,101a15.52,15.52,0,0,1-1.68,3.47l9.61,7.25a27.45,27.45,0,0,0,3.64-7.39Z"/>
            <path class="cls-13"
                  d="M80.65,111.39a15.45,15.45,0,0,1-4.05.06l-2.23,11.84a28,28,0,0,0,4,.29,27.69,27.69,0,0,0,4.47-.36Z"/>
            <path class="cls-14" d="M79.4,80.48a15.41,15.41,0,0,1,3.85.74L87.57,70a27.39,27.39,0,0,0-8.17-1.55Z"/>
            <path class="cls-15" d="M74.88,111.15a15.43,15.43,0,0,1-3.82-1.44l-6.33,10.24a27.42,27.42,0,0,0,7.92,3Z"/>
            <path class="cls-16" d="M73.73,81.17a15.37,15.37,0,0,1,3.93-.7v-12a27.5,27.5,0,0,0-8.28,1.51Z"/>
            <path class="cls-17" d="M65.52,104.7A15.46,15.46,0,0,1,63.69,101l-11.57,3.32A27.44,27.44,0,0,0,55.94,112Z"/>
            <path class="cls-18" d="M68.77,83.8a15.64,15.64,0,0,1,3.33-2L67.76,70.56a27.57,27.57,0,0,0-7.1,4.34Z"/>
            <path class="cls-1"
                  d="M14.42,18.74a2.48,2.48,0,0,0-.94-2.06,11.68,11.68,0,0,0-3.29-1.53,31,31,0,0,1-3.86-1.53Q1.46,11.22,1.46,7A5.9,5.9,0,0,1,2.67,3.36,7.85,7.85,0,0,1,6.1.89a13.38,13.38,0,0,1,5-.89,11.68,11.68,0,0,1,4.84,1,7.68,7.68,0,0,1,3.33,2.74,7.18,7.18,0,0,1,1.19,4.07h-6A3,3,0,0,0,13.5,5.4,3.66,3.66,0,0,0,11,4.56a4.12,4.12,0,0,0-2.55.72,2.19,2.19,0,0,0-.94,1.81,2.2,2.2,0,0,0,1,1.75,13,13,0,0,0,3.63,1.62,22.33,22.33,0,0,1,4.27,1.8q4.06,2.34,4.06,6.45A6.12,6.12,0,0,1,18,23.86a11,11,0,0,1-6.8,1.88,13.47,13.47,0,0,1-5.51-1.09,8.32,8.32,0,0,1-3.72-3A7.8,7.8,0,0,1,.7,17.28H6.76a3.84,3.84,0,0,0,1,3,4.92,4.92,0,0,0,3.38,1,3.9,3.9,0,0,0,2.37-.64,2.13,2.13,0,0,0,.87-1.82"/>
            <path class="cls-1"
                  d="M43.55.34v16.4a9.42,9.42,0,0,1-1.19,4.83A7.68,7.68,0,0,1,39,24.67a12,12,0,0,1-5.25,1.07,10.37,10.37,0,0,1-7.21-2.37,8.47,8.47,0,0,1-2.68-6.51V.34h6.07V17q.1,4.11,3.82,4.11a3.69,3.69,0,0,0,2.84-1,4.81,4.81,0,0,0,1-3.35V.34Z"/>
            <path class="cls-1"
                  d="M60.59,18.74a2.48,2.48,0,0,0-.94-2.06,11.71,11.71,0,0,0-3.29-1.53,31,31,0,0,1-3.86-1.53Q47.64,11.22,47.64,7a5.9,5.9,0,0,1,1.22-3.67A7.84,7.84,0,0,1,52.28.89a13.38,13.38,0,0,1,5-.89,11.67,11.67,0,0,1,4.84,1,7.69,7.69,0,0,1,3.33,2.74,7.18,7.18,0,0,1,1.19,4.07h-6a3,3,0,0,0-.94-2.37,3.66,3.66,0,0,0-2.54-.85,4.12,4.12,0,0,0-2.55.72,2.19,2.19,0,0,0-.94,1.81,2.2,2.2,0,0,0,1,1.75,13,13,0,0,0,3.63,1.62,22.33,22.33,0,0,1,4.27,1.8q4.06,2.34,4.06,6.45a6.12,6.12,0,0,1-2.48,5.16,11,11,0,0,1-6.79,1.88,13.5,13.5,0,0,1-5.52-1.09,8.31,8.31,0,0,1-3.72-3,7.8,7.8,0,0,1-1.25-4.38h6.06a3.84,3.84,0,0,0,1,3,4.93,4.93,0,0,0,3.38,1,3.9,3.9,0,0,0,2.37-.64,2.13,2.13,0,0,0,.87-1.82"/>
            <polygon class="cls-1"
                     points="89.75 5.01 82.23 5.01 82.23 25.39 76.19 25.39 76.19 5.01 68.81 5.01 68.81 0.34 89.75 0.34 89.75 5.01"/>
            <path class="cls-1"
                  d="M104.81,20.72H96.53l-1.45,4.68H88.64l9.19-25h5.68l9.26,25h-6.49ZM98,16.05h5.39l-2.7-8.69Z"/>
            <rect class="cls-1" x="115.35" y="0.34" width="6.02" height="25.05"/>
            <polygon class="cls-1"
                     points="146.84 25.39 140.84 25.39 131.96 9.81 131.96 25.39 125.92 25.39 125.92 0.34 131.96 0.34 140.82 15.93 140.82 0.34 146.84 0.34 146.84 25.39"/>
            <path class="cls-1"
                  d="M165.55,20.72h-8.27l-1.45,4.68h-6.45l9.19-25h5.68l9.26,25H167Zm-6.83-4.66h5.39l-2.7-8.69Z"/>
            <path class="cls-1"
                  d="M175.68,25.4V.35h9q4.83,0,7.35,1.77a5.9,5.9,0,0,1,2.52,5.14,6,6,0,0,1-.89,3.32,5.21,5.21,0,0,1-2.63,2,5.29,5.29,0,0,1,3,1.93,5.62,5.62,0,0,1,1,3.44,6.63,6.63,0,0,1-2.33,5.53q-2.33,1.85-6.91,1.88Zm6-14.61h3.15a4.45,4.45,0,0,0,2.82-.73A2.56,2.56,0,0,0,188.53,8a2.69,2.69,0,0,0-.91-2.29,4.86,4.86,0,0,0-2.94-.7h-3Zm0,4v6h4a3.76,3.76,0,0,0,2.51-.75,2.62,2.62,0,0,0,.88-2.11q0-3.13-3.12-3.15Z"/>
            <polygon class="cls-1"
                     points="204.79 20.75 215.31 20.75 215.31 25.39 198.75 25.39 198.75 0.34 204.79 0.34 204.79 20.75"/>
            <polygon class="cls-1"
                     points="233.74 14.76 224.24 14.76 224.24 20.75 235.46 20.75 235.46 25.39 218.2 25.39 218.2 0.34 235.5 0.34 235.5 5.01 224.24 5.01 224.24 10.29 233.74 10.29 233.74 14.76"/>
            <path class="cls-1"
                  d="M1.47,59.28V34.73h7.9a11.62,11.62,0,0,1,5.85,1.47,10.36,10.36,0,0,1,4.05,4.16,12.59,12.59,0,0,1,1.48,6v1.13a12.67,12.67,0,0,1-1.42,6,10.44,10.44,0,0,1-4,4.18,11.4,11.4,0,0,1-5.77,1.53Zm5.92-20V54.72H9.44a4.6,4.6,0,0,0,3.91-1.81,8.88,8.88,0,0,0,1.37-5.39V46.46a8.8,8.8,0,0,0-1.37-5.36,4.68,4.68,0,0,0-4-1.8Z"/>
            <polygon class="cls-1"
                     points="37.71 48.86 29.03 48.86 29.03 54.73 39.4 54.73 39.4 59.28 23.11 59.28 23.11 34.73 39.43 34.73 39.43 39.3 29.03 39.3 29.03 44.48 37.71 44.48 37.71 48.86"/>
            <polygon class="cls-1"
                     points="52.37 52.6 57.26 34.73 63.87 34.73 55.61 59.27 49.14 59.27 40.94 34.73 47.5 34.73 52.37 52.6"/>
            <polygon class="cls-1"
                     points="80.18 48.86 71.58 48.86 71.58 54.73 81.87 54.73 81.87 59.28 65.66 59.28 65.66 34.73 81.9 34.73 81.9 39.3 71.58 39.3 71.58 44.48 80.18 44.48 80.18 48.86"/>
            <polygon class="cls-1"
                     points="89.82 54.72 99.18 54.72 99.18 59.27 83.9 59.27 83.9 34.73 89.82 34.73 89.82 54.72"/>
            <path class="cls-1"
                  d="M121.19,47.51a14.48,14.48,0,0,1-1.33,6.36,9.85,9.85,0,0,1-3.78,4.26,10.53,10.53,0,0,1-5.59,1.49,10.71,10.71,0,0,1-5.56-1.44A9.85,9.85,0,0,1,101.14,54a14.09,14.09,0,0,1-1.42-6.15V46.51A14.55,14.55,0,0,1,101,40.15a9.81,9.81,0,0,1,3.79-4.25,11.22,11.22,0,0,1,11.19,0,10,10,0,0,1,3.8,4.22,14.16,14.16,0,0,1,1.37,6.28Zm-6-1A10.32,10.32,0,0,0,114,40.93a3.92,3.92,0,0,0-3.5-1.89q-4.45,0-4.7,6.67l0,1.8a10.6,10.6,0,0,0,1.2,5.54A3.91,3.91,0,0,0,110.49,55a3.87,3.87,0,0,0,3.46-1.9,10.32,10.32,0,0,0,1.23-5.48Z"/>
            <path class="cls-1"
                  d="M129.46,50.95v8.33h-5.92V34.73h9.79a11.41,11.41,0,0,1,5,1,7.8,7.8,0,0,1,3.35,2.95,8.06,8.06,0,0,1,1.19,4.34,7.11,7.11,0,0,1-2.57,5.74,10.67,10.67,0,0,1-7.06,2.15Zm0-4.57h3.88a3.65,3.65,0,0,0,2.62-.86,3.19,3.19,0,0,0,.9-2.43,4,4,0,0,0-.93-2.75,3.29,3.29,0,0,0-2.53-1h-3.94Z"/>
            <polygon class="cls-1"
                     points="152.8 34.73 158.28 51.81 163.74 34.73 171.53 34.73 171.53 59.27 165.6 59.27 165.6 53.54 166.17 41.81 160.24 59.27 156.32 59.27 150.38 41.79 150.95 53.54 150.95 59.27 145.03 59.27 145.03 34.73 152.8 34.73"/>
            <polygon class="cls-1"
                     points="188.8 48.86 180.08 48.86 180.08 54.73 190.49 54.73 190.49 59.28 174.17 59.28 174.17 34.73 190.52 34.73 190.52 39.3 180.08 39.3 180.08 44.48 188.8 44.48 188.8 48.86"/>
            <polygon class="cls-1"
                     points="212.97 59.28 207.09 59.28 198.39 44 198.39 59.28 192.47 59.28 192.47 34.73 198.39 34.73 207.07 50 207.07 34.73 212.97 34.73 212.97 59.28"/>
            <polygon class="cls-1"
                     points="235.49 39.3 228.13 39.3 228.13 59.28 222.21 59.28 222.21 39.3 214.98 39.3 214.98 34.73 235.49 34.73 235.49 39.3"/>
        </g>
    </g>
</svg>
