<svg width="19px" height="19px" viewBox="0 0 19 19" version="1.1" xmlns="http://www.w3.org/2000/svg" xmlns:xlink="http://www.w3.org/1999/xlink">
    <g id="Page-1" stroke="none" stroke-width="1" fill="none" fill-rule="evenodd">
        <g transform="translate(-957.000000, -3796.000000)" fill="#D8D8D8" fill-rule="nonzero">
            <g id="Footer" transform="translate(0.000000, 3485.000000)">
                <g id="Face" transform="translate(957.000000, 283.000000)">
                    <g id="Normal">
                        <g id="facebook-logo" transform="translate(0.000000, 1.000000)">
                            <path d="M19,27 L19,46 L0,46 L0,27 L19,27 Z M6.56295758,41.4545455 L6.56295758,34.2954545 L4.41523031,34.2954545 L4.41523031,41.4545455 L6.56295758,41.4545455 Z M5.43181818,32.8636364 C6.22727273,32.8636364 6.86363636,32.2272727 6.86363636,31.4318182 C6.86363636,30.6363636 6.22727273,30 5.43181818,30 C4.63636364,30 4,30.6363636 4,31.4318182 C4,32.2272727 4.63636364,32.8636364 5.43181818,32.8636364 Z M15.8697758,41.4545455 L15.8697758,37.0190217 C15.8697758,35.5405138 14.5970485,34.2954545 13.0856849,34.2954545 C12.3697758,34.2954545 11.4947758,34.7623518 11.0970485,35.3848814 L11.0970485,34.451087 L8.71068485,34.451087 L8.71068485,41.4545455 L11.0970485,41.4545455 L11.0970485,37.3302866 C11.0970485,36.7077874 11.6538667,36.1630435 12.2902303,36.1630435 C12.9265939,36.1630435 13.4834121,36.7077874 13.4834121,37.3302866 L13.4834121,41.4545455 L15.8697758,41.4545455 Z" id="Combined-Shape"></path>
                        </g>
                    </g>
                </g>
            </g>
        </g>
    </g>
</svg>
