<svg width="552" height="344" viewBox="0 0 552 344" fill="none" xmlns="http://www.w3.org/2000/svg">
    <g opacity="0.5">
        <path d="M14.0416 185.115C14.4313 183.099 14.9844 181.05 15.6658 178.995C18.3388 180.983 21.4058 183.072 24.3575 184.99C23.5223 186.805 22.2469 188.552 20.8479 189.925C19.8337 190.921 18.7676 191.707 17.7765 192.177C16.7777 192.652 15.9013 192.784 15.2343 192.555C14.5907 192.333 14.0541 191.741 13.7942 190.549C13.5325 189.349 13.5644 187.583 14.0416 185.115Z" fill="#DADDE0"/>
        <path d="M13.4312 184.996C13.8388 182.888 14.422 180.747 15.1413 178.602C14.5106 178.126 13.9047 177.658 13.3307 177.2C12.4777 176.52 11.6932 175.861 11.0015 175.238C9.1246 175.637 7.21276 176.227 5.3238 176.943C3.50759 177.632 1.72085 178.434 0.0177514 179.288C-0.214422 187.963 1.78538 197.634 8.70858 205.517C12.5884 209.935 17.6708 213.65 23.2107 216.733C24.45 216.171 25.7357 215.699 27.0496 215.309C27.7163 215.11 28.3904 214.933 29.0698 214.775C27.93 210.609 27.5703 206.305 28.5408 202.207C29.3286 198.88 30.9902 195.702 33.8013 192.853C32.675 191.487 31.5595 190.139 30.4599 188.823C28.7709 187.799 26.8608 186.608 24.8846 185.331C24.0108 187.2 22.7022 188.977 21.2832 190.37C20.2348 191.399 19.1132 192.232 18.0429 192.74C16.9804 193.244 15.9219 193.45 15.032 193.143C14.1186 192.829 13.4762 192.01 13.1867 190.682C12.899 189.362 12.9471 187.5 13.4312 184.996Z" fill="#DADDE0"/>
        <path d="M31.1902 220.643C28.7198 219.575 26.2693 218.399 23.8961 217.11C24.9745 216.643 26.0886 216.244 27.2267 215.905C27.8905 215.708 28.5622 215.531 29.2394 215.374C29.7629 217.165 30.4274 218.93 31.1902 220.643Z" fill="#DADDE0"/>
        <path d="M32.0373 221.004C42.8964 225.58 54.0124 228.075 60.5298 228.95L63.2288 236.56C63.2203 233.195 62.985 228.718 62.4091 223.668C60.9689 222.687 59.4493 221.457 57.8708 220.035C57.7687 219.943 57.6663 219.85 57.5636 219.757C57.464 219.921 57.3237 220.071 57.1504 220.207C56.7717 220.504 56.2101 220.753 55.4717 220.959C49.6563 222.576 44.584 222.11 41.3156 219.873C39.4189 218.575 38.157 216.701 37.7065 214.348C35.1057 214.409 32.4419 214.684 29.8477 215.239C30.4241 217.203 31.1734 219.137 32.0373 221.004Z" fill="#DADDE0"/>
        <path d="M53.15 189.153C58.3279 199.547 61.0527 212.342 62.3126 222.843C61.0379 221.94 59.6915 220.838 58.2867 219.573C58.1024 219.407 57.9172 219.238 57.7311 219.066C57.6979 218.665 57.4579 218.291 57.1163 217.956C56.7611 217.607 56.2618 217.265 55.6506 216.937C55.5541 216.885 55.4543 216.833 55.3516 216.781C53.4753 214.912 51.5271 212.824 49.536 210.594C47.0782 207.842 44.559 204.878 42.0325 201.848C43.4464 199.724 45.1529 197.579 46.9548 195.533C49.0076 193.203 51.1736 191.015 53.15 189.153Z" fill="#DADDE0"/>
        <path d="M52.8577 188.574C50.9602 184.865 48.7422 181.478 46.1577 178.632C41.5608 173.572 36.2128 169.829 30.8244 167.097C30.7358 171.61 31.2222 176.472 32.6189 181.443C34.0463 186.524 36.2355 188.543 38.3159 189.09L38.3217 189.091C39.7824 188.005 40.9866 187.197 41.9641 186.614C42.6937 186.179 43.3013 185.868 43.7983 185.659C44.2908 185.453 44.6929 185.341 45.0063 185.321C45.3078 185.303 45.6279 185.368 45.7897 185.648C45.9386 185.906 45.8692 186.212 45.7652 186.453C45.5465 186.959 45.0048 187.582 44.2864 188.147C42.906 189.233 40.7197 190.224 38.4623 189.763C37.8128 190.25 37.1123 190.792 36.3582 191.393C35.7452 191.882 35.174 192.383 34.6428 192.896C35.2855 193.676 35.9312 194.461 36.579 195.248C38.2498 197.279 39.9346 199.327 41.6174 201.35C43.0362 199.238 44.7251 197.123 46.4885 195.122C48.6013 192.723 50.8324 190.475 52.8577 188.574Z" fill="#DADDE0"/>
        <path d="M22.7385 163.698C25.1838 164.532 27.6979 165.553 30.2093 166.79C30.092 171.442 30.5754 176.468 32.0203 181.612C33.3845 186.467 35.4861 188.767 37.7073 189.553C37.1619 189.967 36.5835 190.418 35.9707 190.906C35.3558 191.397 34.7814 191.9 34.2459 192.414C33.1203 191.049 32.0045 189.701 30.9036 188.384C29.1713 186.311 27.4758 184.314 25.8377 182.447C26.0832 181.113 26.0318 179.793 25.5495 178.602C25.0422 177.349 24.0696 176.269 22.5292 175.477C21.1058 174.745 19.5433 174.321 17.8932 174.143C17.7969 174.056 17.701 173.969 17.6055 173.884C19.0863 170.4 20.8547 166.961 22.7385 163.698Z" fill="#DADDE0"/>
        <path d="M22.1371 163.496C14.7649 161.06 8.08014 160.308 4.08136 160.376C2.2821 164.417 0.347353 171.094 0.0416648 178.581C1.67139 177.774 3.37381 177.017 5.10363 176.361C6.86427 175.694 8.66104 175.128 10.4437 174.723C10.348 174.633 10.2546 174.543 10.1635 174.455C9.29859 173.613 8.62771 172.839 8.23951 172.172C7.86573 171.53 7.68202 170.857 8.06673 170.34C8.25139 170.091 8.53825 169.926 8.88967 169.823C9.24173 169.719 9.68279 169.669 10.212 169.669C11.3682 169.669 12.706 170.232 14.1689 171.185C15.0892 171.784 16.0742 172.549 17.1141 173.451C18.5742 170.041 20.3023 166.682 22.1371 163.496Z" fill="#DADDE0"/>
        <path d="M24.608 184.411C21.6315 182.475 18.5459 180.369 15.8752 178.375C16.295 177.153 16.7589 175.93 17.2596 174.712C17.3824 174.721 17.5047 174.731 17.6265 174.742C17.9482 175.037 18.2753 175.344 18.6075 175.663C20.6317 177.606 22.8376 179.979 25.1674 182.627C25.0384 183.218 24.8483 183.816 24.608 184.411Z" fill="#DADDE0"/>
        <path d="M15.353 177.982C15.736 176.879 16.154 175.776 16.6017 174.677C15.0507 174.626 13.4253 174.777 11.766 175.085C12.3578 175.606 13.0129 176.151 13.7182 176.713C14.2383 177.128 14.785 177.552 15.353 177.982Z" fill="#DADDE0"/>
        <path d="M16.8547 174.064L16.859 174.054C15.7784 173.107 14.7653 172.316 13.8298 171.707C12.3972 170.773 11.1847 170.292 10.212 170.292C9.71585 170.292 9.33962 170.339 9.06537 170.42C8.79049 170.501 8.64204 170.608 8.56538 170.711C8.42746 170.897 8.4171 171.241 8.77669 171.858C9.12187 172.451 9.74437 173.179 10.5969 174.008C10.783 174.19 10.9794 174.375 11.1854 174.564C13.1219 174.173 15.0333 173.981 16.8547 174.064Z" fill="#DADDE0"/>
        <path d="M25.139 184.755C25.3529 184.239 25.5318 183.718 25.6689 183.199C26.8199 184.516 27.9997 185.897 29.2015 187.323C27.9162 186.529 26.5434 185.663 25.139 184.755Z" fill="#DADDE0"/>
        <path d="M24.9733 178.836C25.3435 179.75 25.4348 180.77 25.3025 181.839C23.0863 179.333 20.9808 177.079 19.0379 175.214C18.9206 175.101 18.8039 174.99 18.6878 174.88C19.9504 175.091 21.1447 175.465 22.2452 176.031C23.6685 176.762 24.5282 177.737 24.9733 178.836Z" fill="#DADDE0"/>
        <path d="M43.9023 187.658C42.7263 188.583 40.9813 189.39 39.1729 189.237C40.4051 188.338 41.4343 187.655 42.2822 187.149C42.9956 186.724 43.5763 186.427 44.0383 186.234C44.5048 186.038 44.8325 185.956 45.0447 185.943C45.18 185.934 45.2342 185.954 45.2518 185.964C45.2548 185.983 45.2607 186.052 45.1944 186.206C45.0351 186.575 44.5856 187.12 43.9023 187.658Z" fill="#DADDE0"/>
        <path d="M45.2564 185.967C45.2578 185.969 45.2589 185.969 45.2589 185.969C45.2589 185.969 45.2588 185.969 45.2583 185.969C45.2579 185.968 45.2573 185.968 45.2564 185.967Z" fill="#DADDE0"/>
        <path d="M29.1458 202.351C29.9024 199.156 31.493 196.094 34.1991 193.335C34.8224 194.092 35.4488 194.853 36.0774 195.617L36.089 195.632L36.0897 195.633C37.8028 197.715 39.5319 199.817 41.2592 201.892C39.8133 204.117 38.6863 206.327 38.108 208.386C37.5565 210.349 37.4063 212.138 37.608 213.728C34.9863 213.794 32.2987 214.075 29.6773 214.639L29.6717 214.619C28.5492 210.52 28.2052 206.323 29.1458 202.351Z" fill="#DADDE0"/>
        <path d="M38.7065 208.555C39.2511 206.616 40.3076 204.52 41.6763 202.392C44.1666 205.377 46.6501 208.296 49.0725 211.009C50.6837 212.814 52.2698 214.529 53.8149 216.112C51.2706 215.14 47.6605 214.313 43.6026 213.934C41.8817 213.773 40.0763 213.692 38.2327 213.716C38.029 212.2 38.167 210.475 38.7065 208.555Z" fill="#DADDE0"/>
        <path d="M43.5448 214.554C48.4094 215.008 52.5754 216.11 54.9848 217.294C55.6958 218.001 56.397 218.677 57.0868 219.318C57.0453 219.44 56.95 219.574 56.7671 219.717C56.4808 219.941 56.0086 220.163 55.3053 220.359C49.5862 221.949 44.726 221.453 41.6665 219.359C39.9535 218.187 38.7792 216.496 38.3376 214.337C40.123 214.318 41.8732 214.397 43.5448 214.554Z" fill="#DADDE0"/>
        <path d="M60.9095 181.586C60.8033 177.105 60.9637 172.754 61.4761 168.697C62.6274 159.582 65.0289 151.724 67.7947 145.305C70.2591 146.141 72.9748 148.048 75.3087 151.86C76.1699 153.267 76.7862 154.744 77.2059 156.245C76.8963 157.219 76.6319 158.261 76.4068 159.34C75.3803 164.261 75.1557 170.028 75.263 173.838L75.8518 173.969C76.8827 171.905 78.1119 168.323 78.4706 164.25C78.6951 161.703 78.5796 158.953 77.8546 156.259C78.2273 155.116 78.6616 154.085 79.1648 153.216C80.1083 151.587 81.2619 150.578 82.6611 150.403C82.9741 150.364 83.203 150.433 83.3821 150.577C83.5703 150.729 83.7354 150.99 83.859 151.39C84.1079 152.194 84.1525 153.441 84.007 155.064C83.7173 158.296 82.6906 162.868 81.2657 168.005C79.7464 173.482 77.7803 179.58 75.7904 185.344C74.0326 187.092 72.826 188.998 72.0259 190.863C70.7536 188.893 69.1422 186.972 67.1318 185.146C65.3956 183.569 64.0276 182.544 62.9775 181.999C62.4527 181.727 61.989 181.564 61.5861 181.523C61.3417 181.497 61.1138 181.517 60.9095 181.586Z" fill="#DADDE0"/>
        <path d="M61.154 186.934C61.0501 185.371 60.9736 183.816 60.9279 182.275C61.0526 182.173 61.2358 182.112 61.5224 182.142C61.8171 182.172 62.2021 182.298 62.6913 182.551C63.6692 183.059 64.9899 184.041 66.714 185.607C68.8093 187.51 70.4607 189.516 71.7397 191.573C70.6089 194.57 70.4938 197.396 70.781 199.217L70.9619 200.364L71.3783 199.28C71.962 197.761 72.5861 196.105 73.2339 194.35C74.9845 198.162 75.6052 202.069 75.5272 205.761C75.427 210.507 74.172 214.899 72.6735 218.273C72.2394 219.109 71.8135 219.92 71.399 220.7V209.996L71.3626 209.928C67.7853 203.193 63.2962 193.898 61.4286 187.866C61.3292 187.545 61.2375 187.235 61.154 186.934Z" fill="#DADDE0"/>
        <path d="M61.36 189.641C62.8921 207.551 67.7311 225.973 70.7677 235.092L69.8065 226.112C76.0009 217.879 89.0305 195.897 91.5937 173.829C94.1569 151.762 84.5449 133.415 79.4185 127C76.6337 129.664 71.9987 135.745 68.044 144.732C70.6265 145.621 73.4401 147.617 75.8388 151.535C76.5719 152.733 77.1329 153.977 77.5502 155.241C77.8671 154.386 78.2245 153.599 78.6269 152.904C79.6152 151.197 80.9074 149.995 82.584 149.785C83.0399 149.728 83.4438 149.828 83.7722 150.093C84.0915 150.35 84.3087 150.739 84.4529 151.205C84.7396 152.132 84.7732 153.481 84.6263 155.119C84.3313 158.411 83.2914 163.028 81.8647 168.171C80.4377 173.316 78.6184 179.005 76.7552 184.45C78.2906 183.123 80.1821 181.915 82.5001 180.921C83.8689 180.333 84.9586 180.241 85.7269 180.733C86.4949 181.224 86.8063 182.213 86.8441 183.433C86.9203 185.891 85.9017 189.725 84.3086 194.134C81.5718 201.709 77.0839 211.124 73.2336 218.544C72.6263 219.908 71.9796 221.11 71.351 222.108L70.7772 223.019V210.152C67.504 203.984 63.4605 195.662 61.36 189.641Z" fill="#DADDE0"/>
        <path d="M77.0154 159.467C77.1606 158.771 77.3217 158.095 77.4997 157.445C77.9803 159.723 78.0423 162.027 77.8513 164.196C77.5645 167.45 76.709 170.384 75.8615 172.439C75.8403 168.733 76.119 163.764 77.0154 159.467Z" fill="#DADDE0"/>
        <path d="M72.4307 191.51C73.0559 189.943 73.9747 188.332 75.2828 186.806C74.5634 188.865 73.8456 190.871 73.1493 192.776C72.9243 192.353 72.685 191.93 72.4307 191.51Z" fill="#DADDE0"/>
        <path d="M72.1521 192.261C72.4035 192.695 72.6388 193.131 72.8587 193.569C72.3125 195.055 71.7815 196.475 71.2756 197.807C71.2253 196.273 71.4425 194.323 72.1521 192.261Z" fill="#DADDE0"/>
        <path d="M76.1488 205.775C76.0883 208.642 75.6152 211.381 74.9216 213.853C78.1604 207.354 81.5168 200.031 83.7239 193.923C85.3188 189.509 86.2947 185.777 86.2227 183.453C86.1864 182.282 85.8881 181.575 85.392 181.257C84.8963 180.94 84.0675 180.925 82.745 181.493C80.0493 182.649 77.9505 184.101 76.3294 185.688C75.3874 188.414 74.4409 191.062 73.5347 193.532C75.5289 197.611 76.2325 201.815 76.1488 205.775Z" fill="#DADDE0"/>
        <path d="M43.854 239.364C43.854 235.411 47.0553 232.206 51.0042 232.206H82.8415C86.7904 232.206 89.9917 235.411 89.9917 239.364V361.104C89.9917 365.058 86.7904 368.262 82.8415 368.262H51.0042C47.0553 368.262 43.854 365.058 43.854 361.104V239.364Z" fill="#DADDE0"/>
    </g>
    <path d="M150.348 83.5782C148.833 81.6049 147.129 79.6826 145.287 77.8217C143.577 81.3936 141.51 85.284 139.469 88.9281C141.341 90.4471 143.636 91.6589 145.856 92.4005C147.465 92.9382 149.014 93.2215 150.31 93.2034C151.617 93.1852 152.608 92.8629 153.181 92.2597C153.734 91.6777 153.972 90.7522 153.59 89.3248C153.205 87.8875 152.202 85.994 150.348 83.5782Z" fill="#DADDE0"/>
    <path d="M150.923 83.1257C149.338 81.0618 147.552 79.0556 145.621 77.1181C146.021 76.2685 146.399 75.4396 146.749 74.6392C147.269 73.4497 147.73 72.3205 148.113 71.2783C150.299 70.7124 152.626 70.3337 154.998 70.1039C157.279 69.8829 159.592 69.8004 161.845 69.8193C166.85 79.0789 170.062 90.6037 167.134 102.811C165.493 109.653 162.206 116.373 158.093 122.653C156.486 122.705 154.88 122.878 153.289 123.154C152.481 123.294 151.677 123.461 150.879 123.651C149.787 118.539 147.801 113.692 144.535 109.776C141.884 106.596 138.398 104.041 133.889 102.454C134.319 100.378 134.749 98.3273 135.179 96.3192C136.387 94.3137 137.734 92.0092 139.104 89.5777C141.046 91.1346 143.392 92.3605 145.644 93.1127C147.307 93.6684 148.939 93.9729 150.34 93.9534C151.73 93.934 152.952 93.5935 153.716 92.7888C154.501 91.9629 154.724 90.7355 154.299 89.1454C153.876 87.5651 152.804 85.5764 150.923 83.1257Z" fill="#DADDE0"/>
    <path d="M151.877 131.125C153.88 128.657 155.803 126.083 157.581 123.426C156.196 123.495 154.809 123.655 153.43 123.894C152.627 124.033 151.826 124.199 151.03 124.389C151.464 126.605 151.737 128.867 151.877 131.125Z" fill="#DADDE0"/>
    <path d="M151.188 131.967C142.32 142.69 132.042 151.3 125.692 155.711L127.04 165.377C125.203 161.733 122.992 156.765 120.824 150.997C121.795 149.171 122.712 147.032 123.586 144.655C123.642 144.501 123.699 144.346 123.755 144.19C123.949 144.314 124.179 144.403 124.435 144.458C124.995 144.577 125.72 144.548 126.606 144.378C133.588 143.035 138.647 139.834 140.845 135.677C142.12 133.265 142.413 130.566 141.594 127.781C144.353 126.465 147.295 125.346 150.318 124.566C150.792 126.997 151.068 129.488 151.188 131.967Z" fill="#DADDE0"/>
    <path d="M111.583 108.741C111.862 122.736 116.029 138.024 120.472 150.054C121.312 148.399 122.118 146.491 122.896 144.375C122.998 144.098 123.099 143.817 123.2 143.532C123.015 143.081 123.061 142.549 123.235 142.004C123.416 141.438 123.751 140.802 124.211 140.122C124.284 140.015 124.36 139.906 124.44 139.795C125.38 136.776 126.275 133.482 127.138 130.011C128.203 125.727 129.216 121.182 130.2 116.561C127.553 115.016 124.587 113.602 121.577 112.348C118.147 110.919 114.676 109.704 111.583 108.741Z" fill="#DADDE0"/>
    <path d="M111.572 107.959C111.524 102.937 111.989 98.0944 113.136 93.6427C115.176 85.7248 118.726 78.8327 122.873 73.0127C125.442 77.8471 127.601 83.3643 128.866 89.4843C130.159 95.7391 128.973 99.0873 127.093 100.784L127.087 100.789C124.961 100.391 123.255 100.157 121.911 100.047C120.908 99.9642 120.1 99.95 119.465 99.989C118.836 100.028 118.353 100.12 118.014 100.266C117.688 100.406 117.388 100.647 117.372 101.036C117.358 101.394 117.598 101.688 117.839 101.893C118.347 102.325 119.256 102.71 120.319 102.939C122.361 103.38 125.196 103.289 127.309 101.59C128.257 101.772 129.288 101.985 130.408 102.235C131.319 102.438 132.193 102.677 133.031 102.948C132.785 104.134 132.539 105.326 132.293 106.522C131.657 109.608 131.015 112.719 130.362 115.801C127.716 114.272 124.786 112.882 121.839 111.654C118.309 110.184 114.737 108.938 111.572 107.959Z" fill="#DADDE0"/>
    <path d="M129.48 65.0367C127.376 67.2393 125.301 69.6796 123.348 72.353C126.025 77.3232 128.277 83.0167 129.585 89.3483C130.821 95.3258 129.881 98.9306 127.985 100.962C128.784 101.12 129.637 101.3 130.547 101.503C131.461 101.706 132.339 101.945 133.182 102.216C133.613 100.141 134.042 98.0903 134.473 96.0801C135.15 92.917 135.831 89.8554 136.523 86.9646C135.533 85.6526 134.863 84.1969 134.714 82.6524C134.558 81.0277 134.985 79.3418 136.164 77.6663C137.254 76.118 138.658 74.8278 140.29 73.7586C140.343 73.6128 140.396 73.4683 140.449 73.3252C136.985 70.3435 133.245 67.5639 129.48 65.0367Z" fill="#DADDE0"/>
    <path d="M129.999 64.4984C136.388 57.9441 142.98 53.5755 147.207 51.5229C151.311 54.9374 157.003 61.1312 161.432 69.067C159.281 69.0604 157.082 69.1467 154.909 69.3572C152.698 69.5714 150.505 69.9154 148.415 70.4251C148.465 70.2765 148.514 70.13 148.561 69.9856C149.005 68.6153 149.283 67.4209 149.324 66.4933C149.363 65.6002 149.186 64.7743 148.5 64.4195C148.17 64.2492 147.779 64.2232 147.354 64.298C146.928 64.3729 146.438 64.5537 145.884 64.835C144.672 65.4498 143.579 66.7696 142.569 68.5784C141.934 69.7162 141.321 71.0667 140.727 72.5957C137.325 69.6829 133.671 66.9687 129.999 64.4984Z" fill="#DADDE0"/>
    <path d="M138.889 88.4346C140.945 84.758 143.023 80.8399 144.727 77.2624C143.617 76.1644 142.459 75.0884 141.266 74.0366C141.142 74.1114 141.02 74.1874 140.898 74.2646C140.723 74.7543 140.549 75.2604 140.376 75.7821C139.321 78.96 138.312 82.6994 137.324 86.8024C137.783 87.3734 138.311 87.9194 138.889 88.4346Z" fill="#DADDE0"/>
    <path d="M145.059 76.5601C144.052 75.5711 143.009 74.6004 141.937 73.6498C143.534 72.7698 145.32 72.0688 147.228 71.5199C146.893 72.3974 146.506 73.3352 146.076 74.3187C145.758 75.0439 145.418 75.7931 145.059 76.5601Z" fill="#DADDE0"/>
    <path d="M141.335 73.1211L141.325 73.1123C141.938 71.5136 142.565 70.1191 143.211 68.9624C144.2 67.1911 145.206 66.0255 146.225 65.5083C146.745 65.2445 147.165 65.0956 147.497 65.0372C147.83 64.9788 148.044 65.0161 148.181 65.0868C148.427 65.214 148.627 65.5807 148.589 66.4399C148.553 67.2647 148.3 68.3826 147.862 69.7333C147.766 70.0282 147.662 70.3331 147.55 70.6472C145.306 71.2535 143.198 72.0625 141.335 73.1211Z" fill="#DADDE0"/>
    <path d="M138.521 89.0894C138.014 88.6449 137.541 88.1768 137.112 87.6878C136.629 89.7248 136.151 91.8459 135.674 94.0277C136.585 92.4851 137.548 90.8183 138.521 89.0894Z" fill="#DADDE0"/>
    <path d="M135.447 82.599C135.56 83.7846 136.025 84.9366 136.75 86.0228C137.697 82.1333 138.666 78.5754 139.678 75.5249C139.739 75.3408 139.8 75.1585 139.862 74.978C138.654 75.8774 137.608 76.9172 136.766 78.1142C135.676 79.6624 135.31 81.1734 135.447 82.599Z" fill="#DADDE0"/>
    <path d="M120.453 102.206C122.193 102.581 124.465 102.527 126.275 101.399C124.491 101.082 123.037 100.89 121.871 100.794C120.891 100.714 120.119 100.701 119.529 100.738C118.933 100.774 118.544 100.859 118.314 100.958C118.168 101.021 118.122 101.071 118.109 101.091C118.116 101.113 118.148 101.192 118.302 101.322C118.672 101.637 119.442 101.988 120.453 102.206Z" fill="#DADDE0"/>
    <path d="M118.106 101.097C118.105 101.1 118.105 101.101 118.105 101.101C118.105 101.101 118.105 101.101 118.105 101.1C118.105 101.099 118.105 101.098 118.106 101.097Z" fill="#DADDE0"/>
    <path d="M143.98 110.253C141.434 107.199 138.086 104.733 133.737 103.188C133.499 104.338 133.26 105.494 133.021 106.655L133.017 106.677L133.016 106.678C132.364 109.841 131.706 113.034 131.035 116.197C133.771 117.835 136.165 119.627 137.901 121.546C139.556 123.376 140.696 125.232 141.357 127.058C144.141 125.736 147.111 124.611 150.167 123.827L150.162 123.802C149.089 118.771 147.146 114.049 143.98 110.253Z" fill="#DADDE0"/>
    <path d="M137.367 122.047C135.732 120.239 133.475 118.534 130.872 116.96C129.901 121.513 128.901 125.991 127.851 130.213C127.153 133.022 126.433 135.72 125.683 138.255C127.815 135.851 131.144 133.036 135.188 130.469C136.903 129.38 138.751 128.332 140.696 127.377C140.077 125.63 138.986 123.837 137.367 122.047Z" fill="#DADDE0"/>
    <path d="M135.589 131.108C130.741 134.187 126.98 137.593 125.105 140.155C124.748 141.298 124.384 142.402 124.013 143.462C124.124 143.572 124.297 143.666 124.568 143.724C124.991 143.814 125.607 143.803 126.452 143.641C133.317 142.32 138.138 139.199 140.195 135.308C141.347 133.129 141.649 130.675 140.927 128.105C139.045 129.034 137.255 130.05 135.589 131.108Z" fill="#DADDE0"/>
    <path d="M99.2988 104.681C96.9505 99.7772 94.3945 95.1564 91.6314 91.0411C85.4217 81.7929 78.5929 74.5709 72.1713 69.0977C70.0478 71.3124 68.249 74.8195 67.8955 80.1838C67.7651 82.1633 67.9299 84.0886 68.3137 85.9349C69.1729 86.8243 70.022 87.811 70.85 88.8583C74.6263 93.6348 78.027 99.7539 80.0058 103.932L79.4603 104.386C77.2472 102.702 73.9932 99.4809 71.3823 95.2668C69.7488 92.6304 68.3605 89.5945 67.6417 86.2951C66.624 85.2574 65.603 84.373 64.5987 83.7005C62.7158 82.4395 60.9534 81.9619 59.391 82.5165C59.0415 82.6406 58.8397 82.8372 58.7313 83.0887C58.6174 83.3529 58.5876 83.7229 58.6774 84.2208C58.8582 85.2237 59.4957 86.5957 60.5388 88.2738C62.6162 91.6157 66.2014 96.0152 70.514 100.814C75.112 105.931 80.5195 111.482 85.7681 116.658C88.5695 117.615 90.8795 119.034 92.7417 120.626C92.9935 117.818 93.628 114.884 94.7324 111.84C95.6862 109.211 96.5572 107.375 97.3584 106.227C97.7588 105.654 98.1557 105.231 98.555 104.972C98.7974 104.815 99.0466 104.714 99.2988 104.681Z" fill="#DADDE0"/>
    <path d="M101.978 110.596C101.229 108.85 100.456 107.127 99.6578 105.436C99.4712 105.392 99.2458 105.424 98.9616 105.608C98.6695 105.798 98.3349 106.138 97.9616 106.673C97.2154 107.742 96.3703 109.506 95.4232 112.116C94.2723 115.289 93.6427 118.337 93.4316 121.242C96.2609 123.882 97.9327 126.878 98.6313 129.001L99.0712 130.337L98.0402 129.387C96.5946 128.054 95.0316 126.594 93.3896 125.04C93.6473 130.094 95.1412 134.65 97.2496 138.603C99.9594 143.683 103.685 147.767 107.107 150.619C108.021 151.292 108.912 151.943 109.775 152.567L103.9 140.989L103.9 140.895C103.953 131.709 103.555 119.267 102.202 111.75C102.13 111.35 102.055 110.965 101.978 110.596Z" fill="#DADDE0"/>
    <path d="M103.248 113.633C111.472 133.82 116.512 156.32 118.335 167.799L114.413 157.573C103.404 151.962 77.6857 135.113 62.8881 112.606C48.0906 90.0989 48.0934 65.1431 49.9445 55.4785C54.3247 56.8792 62.5193 60.9927 71.5958 68.611C69.3776 70.9457 67.5248 74.6006 67.1615 80.1139C67.0505 81.7988 67.1456 83.4432 67.4022 85.0326C66.6009 84.2763 65.7943 83.6147 64.9911 83.0768C63.0186 81.7559 61.0049 81.1429 59.1329 81.8074C58.6238 81.9881 58.2552 82.3107 58.0565 82.7719C57.8633 83.2203 57.8492 83.7565 57.954 84.3375C58.1622 85.4923 58.8671 86.9689 59.9205 88.6633C62.036 92.0665 65.6599 96.5081 69.9776 101.313C74.2966 106.119 79.3252 111.305 84.2663 116.204C81.9293 115.586 79.284 115.284 76.3092 115.441C74.5524 115.534 73.3601 116.013 72.8248 116.954C72.2898 117.894 72.5058 119.128 73.1361 120.469C74.4053 123.168 77.5772 126.773 81.6664 130.696C88.6914 137.433 98.5617 145.231 106.668 151.209C108.054 152.363 109.391 153.319 110.597 154.064L111.699 154.744L104.637 140.826C104.682 132.414 104.351 121.263 103.248 113.633Z" fill="#DADDE0"/>
    <path d="M70.282 89.3196C69.7479 88.644 69.2078 87.9977 68.6648 87.3899C69.4115 90.1095 70.6108 92.6341 72.0013 94.8784C74.0881 98.2465 76.5946 100.965 78.6107 102.737C76.5986 98.7165 73.5796 93.4905 70.282 89.3196Z" fill="#DADDE0"/>
    <path d="M92.6728 121.542C91.1573 120.178 89.3103 118.924 87.1022 117.969C88.9864 119.815 90.8391 121.602 92.6147 123.293C92.6178 122.715 92.6369 122.131 92.6728 121.542Z" fill="#DADDE0"/>
    <path d="M93.3766 122.205C93.3516 122.809 93.3444 123.406 93.3543 123.996C94.7425 125.313 96.0782 126.567 97.339 127.738C96.5497 126.052 95.2522 124.059 93.3766 122.205Z" fill="#DADDE0"/>
    <path d="M96.6055 138.948C98.2425 142.017 100.241 144.728 102.325 147.033C95.3643 141.726 87.8282 135.59 82.1629 130.156C78.0689 126.229 74.9984 122.712 73.798 120.159C73.1935 118.874 73.118 117.95 73.4636 117.343C73.8089 116.736 74.6693 116.279 76.3666 116.19C79.8261 116.008 82.8222 116.462 85.392 117.317C87.875 119.764 90.3204 122.126 92.6258 124.316C92.7747 129.788 94.3448 134.709 96.6055 138.948Z" fill="#DADDE0"/>
    <path d="M87.0386 169.831C87.0386 164.419 91.4212 160.031 96.8275 160.031H140.414C145.82 160.031 150.203 164.419 150.203 169.831V386.498C150.203 391.91 145.82 396.298 140.414 396.298H96.8275C91.4212 396.298 87.0386 391.91 87.0386 386.498V169.831Z" fill="#DADDE0"/>
    <rect width="252.714" height="186.406" transform="matrix(0.938069 -0.346448 0 1 179.534 88.047)" fill="#F1F4F5"/>
    <g filter="url(#filter0_d_8842_1991)">
        <rect width="113.88" height="72.2188" transform="matrix(0.938191 -0.346117 0 1 198 99.416)" fill="white"/>
        <rect width="69.23" height="6.17801" transform="matrix(0.93818 -0.351014 0 1 230.839 96.3743)" fill="#F1F4F5"/>
        <rect width="45.0557" height="6.17801" transform="matrix(0.93818 -0.351014 0 1 230.839 108.518)" fill="#F1F4F5"/>
        <path d="M223.333 105.201L220.562 106.184L219.177 112.902L222.641 111.672V114.085L218.649 115.502L217.528 120.994L214.691 122.001L215.812 116.509L211.623 117.996L210.502 123.488L207.632 124.506L208.753 119.015L206.444 119.834V117.421L209.281 116.414L210.667 109.697L207.137 110.95V108.537L211.194 107.097L212.25 101.867L215.087 100.86L214.031 106.09L218.22 104.603L219.276 99.373L222.146 98.3543L221.09 103.584L223.333 102.788V105.201ZM216.34 113.909L217.693 107.203L213.503 108.69L212.151 115.396L216.34 113.909Z" fill="#F1F4F5"/>
        <rect width="95.1523" height="6.17801" transform="matrix(0.938191 -0.346117 0 1 206.519 129.294)" fill="#F1F4F5"/>
        <rect width="52.7413" height="6.17801" transform="matrix(0.938191 -0.346117 0 1 206.519 141.437)" fill="#F1F4F5"/>
        <rect width="95.3765" height="6.17801" transform="matrix(0.938191 -0.346117 0 1 206.519 153.58)" fill="#F1F4F5"/>
    </g>
    <g filter="url(#filter1_d_8842_1991)">
        <rect width="113.88" height="72.2188" transform="matrix(0.938191 -0.346117 0 1 198 180.416)" fill="white"/>
        <rect width="69.23" height="6.17801" transform="matrix(0.93818 -0.351014 0 1 230.839 177.374)" fill="#F1F4F5"/>
        <rect width="45.0557" height="6.17801" transform="matrix(0.93818 -0.351014 0 1 230.839 189.518)" fill="#F1F4F5"/>
        <path d="M223.333 186.201L220.562 187.184L219.177 193.902L222.641 192.672V195.085L218.649 196.502L217.528 201.993L214.691 203L215.812 197.509L211.623 198.996L210.502 204.487L207.632 205.506L208.753 200.014L206.444 200.834V198.421L209.281 197.414L210.667 190.697L207.137 191.95V189.537L211.194 188.097L212.25 182.867L215.087 181.86L214.031 187.09L218.22 185.603L219.276 180.373L222.146 179.354L221.09 184.584L223.333 183.788V186.201ZM216.34 194.909L217.693 188.203L213.503 189.69L212.151 196.396L216.34 194.909Z" fill="#F1F4F5"/>
        <rect width="95.1523" height="6.17801" transform="matrix(0.938191 -0.346117 0 1 206.519 210.294)" fill="#F1F4F5"/>
        <rect width="52.7413" height="6.17801" transform="matrix(0.938191 -0.346117 0 1 206.519 222.436)" fill="#F1F4F5"/>
        <rect width="95.3765" height="6.17801" transform="matrix(0.938191 -0.346117 0 1 206.519 234.58)" fill="#F1F4F5"/>
    </g>
    <g filter="url(#filter2_d_8842_1991)">
        <rect width="113.88" height="72.2188" transform="matrix(0.938191 -0.346117 0 1 318 53.416)" fill="white"/>
        <rect width="69.23" height="6.17801" transform="matrix(0.93818 -0.351014 0 1 350.839 50.3743)" fill="#F1F4F5"/>
        <rect width="45.0557" height="6.17801" transform="matrix(0.93818 -0.351014 0 1 350.839 62.5178)" fill="#F1F4F5"/>
        <path d="M343.333 59.2008L340.562 60.1844L339.177 66.9017L342.641 65.6723V68.085L338.649 69.5018L337.528 74.9935L334.691 76.0005L335.812 70.5088L331.623 71.9958L330.502 77.4876L327.632 78.5062L328.753 73.0145L326.444 73.8341V71.4214L329.281 70.4144L330.667 63.6971L327.137 64.95V62.5372L331.194 61.097L332.25 55.867L335.087 54.86L334.031 60.09L338.22 58.603L339.276 53.373L342.146 52.3543L341.09 57.5843L343.333 56.7881V59.2008ZM336.34 67.9087L337.693 61.2031L333.503 62.6901L332.151 69.3957L336.34 67.9087Z" fill="#F1F4F5"/>
        <rect width="95.1523" height="6.17801" transform="matrix(0.938191 -0.346117 0 1 326.519 83.2938)" fill="#F1F4F5"/>
        <rect width="52.7413" height="6.17801" transform="matrix(0.938191 -0.346117 0 1 326.519 95.4365)" fill="#F1F4F5"/>
        <rect width="95.3765" height="6.17801" transform="matrix(0.938191 -0.346117 0 1 326.519 107.58)" fill="#F1F4F5"/>
    </g>
    <g filter="url(#filter3_d_8842_1991)">
        <rect width="113.88" height="72.2188" transform="matrix(0.938191 -0.346117 0 1 318 134.416)" fill="white"/>
        <rect width="69.23" height="6.17801" transform="matrix(0.93818 -0.351014 0 1 350.839 131.374)" fill="#F1F4F5"/>
        <rect width="45.0557" height="6.17801" transform="matrix(0.93818 -0.351014 0 1 350.839 143.518)" fill="#F1F4F5"/>
        <path d="M343.333 140.201L340.562 141.184L339.177 147.902L342.641 146.672V149.085L338.649 150.502L337.528 155.994L334.691 157.001L335.812 151.509L331.623 152.996L330.502 158.488L327.632 159.506L328.753 154.015L326.444 154.834V152.421L329.281 151.414L330.667 144.697L327.137 145.95V143.537L331.194 142.097L332.25 136.867L335.087 135.86L334.031 141.09L338.22 139.603L339.276 134.373L342.146 133.354L341.09 138.584L343.333 137.788V140.201ZM336.34 148.909L337.693 142.203L333.503 143.69L332.151 150.396L336.34 148.909Z" fill="#F1F4F5"/>
        <rect width="95.1523" height="6.17801" transform="matrix(0.938191 -0.346117 0 1 326.519 164.294)" fill="#F1F4F5"/>
        <rect width="52.7413" height="6.17801" transform="matrix(0.938191 -0.346117 0 1 326.519 176.437)" fill="#F1F4F5"/>
        <rect width="95.3765" height="6.17801" transform="matrix(0.938191 -0.346117 0 1 326.519 188.58)" fill="#F1F4F5"/>
    </g>
    <g filter="url(#filter4_d_8842_1991)">
        <rect width="69.0335" height="76.2665" transform="matrix(0.938191 -0.346117 0 1 281 107.894)" fill="white"/>
        <ellipse rx="23.8836" ry="26.386" transform="matrix(0.938191 -0.346117 0 1 313.382 134.08)" fill="#0197E3"/>
        <path fill-rule="evenodd" clip-rule="evenodd" d="M310.887 137.825L310.921 150.312L315.784 148.537L315.75 136.049L326.157 132.249L326.141 126.414L315.733 130.214L315.699 117.723L310.836 119.499L310.87 131.99L300.458 135.792L300.474 141.627L310.887 137.825Z" fill="white"/>
    </g>
    <path d="M399.499 126.5C401.04 122.919 404.999 111.5 407.899 106.048C410.031 105.726 420.122 115.212 425.57 116.865C431.018 118.518 431.371 132.842 432.312 138.489L438.984 152.469L418.485 157.014C418.278 156.164 417.797 153.13 417.521 151.367C417.246 149.604 416.054 147.487 415.389 146.202C415.389 146.202 408.627 146.91 404.499 144.5C396.859 140.038 397.572 130.976 399.499 126.5Z" fill="#F8D989"/>
    <path d="M433.18 144.978C428.622 145.338 433.397 141.098 430.793 140.307C427.61 139.341 427.494 137.059 429.635 136.139C432.312 134.989 431.299 134.414 426.958 131.54C422.618 128.665 427.103 125.719 428.767 123.85C430.431 121.982 429.635 120.401 425.511 118.388C421.388 116.376 419.145 118.316 414.876 117.239C410.608 116.161 413.574 111.561 411.838 110.124C410.102 108.687 408.655 109.19 406.629 110.124C404.603 111.058 401.131 105.093 404.242 103.872C407.352 102.65 404.893 100.35 403.446 97.8349C401.999 95.3197 405.833 90.1454 408.655 90.0017C411.476 89.8579 412.5 95.0002 414.876 92C417.888 88.1987 419.5 96.5002 422.762 93.4512C427.093 89.4035 431.905 90.8061 435.882 91.9656L436 92C440 93.1655 439.738 96.9078 443 99.5002C446.262 102.093 448.534 100.243 451.267 103.872C454 107.5 448.735 110.627 450.182 112.352C451.629 114.076 452.968 110.914 455.5 117.239C458.032 123.563 449.386 123.706 450.182 128.521C450.978 133.336 446.058 132.043 445.262 135.348C444.466 138.654 447.288 138.223 444.177 140.882C441.066 143.541 438.679 138.295 437.883 140.882C437.087 143.469 437.738 144.619 433.18 144.978Z" fill="black"/>
    <path d="M338.216 181.389C336.574 185.559 336.5 188 336 189.5C335.5 193 335.484 194.843 335.987 196.109C336.49 197.375 337.366 199.353 337.454 199.198L341.383 195.401L344.076 183.05C344.355 181.706 346.449 178.484 345.222 176.19C344.695 175.207 340.268 176.177 338.216 181.389Z" fill="#147DDF"/>
    <path d="M416.705 159.846C416.705 161.909 415.938 164.287 415.555 165.219L445.773 159.846C445.432 158.341 444.24 154.559 442.195 151.464C439.64 147.596 437.851 148.456 433.315 149.423C429.686 150.196 420.729 153.685 416.705 155.333V159.846Z" fill="#147DDF"/>
    <path d="M369.694 219.863C372.106 209.779 378.696 187.354 385.761 178.321C394.592 167.03 410.872 158.296 448.432 156.378C485.992 154.461 515.89 187.588 533.34 219.863C547.3 245.683 554.692 300.425 556.642 324.569C553.344 332.558 535.192 350.048 488.971 356.099C431.195 363.661 486.005 343.679 448.432 340.011C434.324 338.634 400.497 355.189 389.721 324.569C383.913 308.065 380.867 272.695 380.867 272.695C380.867 272.695 359.039 277.952 341.392 245.64C325.219 216.028 335.5 192 336.001 189.5C335.5 194 337.15 200.69 339.902 193.553C345.321 179.5 345.849 177.417 345.721 176.969C345.688 176.923 345.654 176.878 345.622 176.833C345.59 176.807 345.56 176.779 345.541 176.723C345.568 176.759 345.595 176.796 345.622 176.833C345.66 176.865 345.7 176.894 345.721 176.969C349.805 182.559 358.353 194.841 361.289 201.222C364.268 207.698 368.134 216.348 369.694 219.863Z" fill="#0197E3"/>
    <path d="M397.678 254.587C393.422 261.49 384.626 269.393 380.76 272.482L383.764 298.291C386 295.5 392.621 288.5 400.657 270.139C404 262.5 406.544 242.089 407.999 233.39C406.332 237.58 401.934 247.685 397.678 254.587Z" fill="#147DDF"/>
    <path d="M399 184C396.276 181.273 391.684 179.599 389.805 179.492C391.578 178.214 395.722 177.532 401 179.492C406.278 181.452 408.815 195.825 409.063 203.458C406.793 197.848 405 190.006 399 184Z" fill="#147DDF"/>
    <path d="M342.882 163.31C343.51 165.809 345.182 173.741 345.967 177.224C345.761 177.811 344.877 180.364 343.094 185.244C341.498 189.611 340.753 191.315 340.009 193.232C335.839 185.319 332.449 178.53 330.99 175.861C330.106 174.242 327.344 169.671 327.456 167.57C327.569 165.468 328.578 165.923 329.195 163.821C329.812 161.72 330.956 161.714 331.944 160.187C333.01 158.54 334.917 158.899 335.702 159.051L332.375 150.152C332.129 149.494 332.413 148.756 333.037 148.433C333.75 148.063 334.627 148.376 334.946 149.114L339.741 160.187C340.788 159.695 342.254 160.811 342.882 163.31Z" fill="#F8D989"/>
    <path d="M100.445 221.499C100.979 218.74 101.736 215.934 102.669 213.121C106.328 215.843 110.527 218.703 114.568 221.328C113.425 223.813 111.679 226.205 109.763 228.085C108.375 229.448 106.915 230.524 105.558 231.168C104.191 231.817 102.991 231.999 102.078 231.685C101.197 231.381 100.462 230.571 100.106 228.939C99.7482 227.296 99.7919 224.878 100.445 221.499Z" fill="#0197E3"/>
    <path d="M99.6095 221.337C100.168 218.451 100.966 215.519 101.951 212.583C101.087 211.932 100.258 211.291 99.472 210.664C98.3041 209.732 97.2302 208.831 96.2832 207.978C93.7136 208.524 91.0963 209.332 88.5102 210.312C86.0237 211.254 83.5776 212.353 81.246 213.523C80.9281 225.399 83.6659 238.639 93.1441 249.431C98.4558 255.479 105.414 260.565 112.998 264.785C114.695 264.017 116.455 263.371 118.254 262.836C119.166 262.565 120.089 262.321 121.019 262.105C119.459 256.402 118.967 250.51 120.295 244.899C121.374 240.345 123.648 235.993 127.497 232.093C125.955 230.223 124.428 228.378 122.923 226.576C120.61 225.175 117.995 223.543 115.29 221.796C114.094 224.354 112.302 226.787 110.359 228.694C108.924 230.103 107.388 231.243 105.923 231.938C104.469 232.629 103.019 232.91 101.801 232.491C100.551 232.06 99.6712 230.939 99.2748 229.121C98.8809 227.315 98.9468 224.765 99.6095 221.337Z" fill="#0197E3"/>
    <path d="M123.922 270.138C120.54 268.677 117.185 267.067 113.936 265.302C115.413 264.663 116.938 264.116 118.496 263.653C119.405 263.383 120.325 263.141 121.252 262.926C121.968 265.378 122.878 267.794 123.922 270.138Z" fill="#0197E3"/>
    <path d="M125.082 270.633C139.949 276.897 155.167 280.314 164.089 281.511L167.784 291.93C167.773 287.323 167.451 281.193 166.662 274.281C164.691 272.938 162.61 271.254 160.449 269.307C160.309 269.181 160.169 269.054 160.029 268.926C159.892 269.15 159.7 269.356 159.463 269.542C158.944 269.949 158.176 270.29 157.165 270.571C149.203 272.785 142.259 272.147 137.785 269.085C135.188 267.308 133.46 264.742 132.843 261.521C129.283 261.605 125.636 261.981 122.084 262.74C122.874 265.429 123.899 268.077 125.082 270.633Z" fill="#0197E3"/>
    <path d="M153.986 227.028C161.075 241.258 164.805 258.774 166.53 273.151C164.785 271.914 162.942 270.406 161.019 268.674C160.766 268.446 160.513 268.215 160.258 267.98C160.213 267.432 159.884 266.92 159.416 266.46C158.93 265.982 158.246 265.514 157.41 265.065C157.277 264.994 157.141 264.923 157 264.852C154.432 262.293 151.764 259.435 149.039 256.382C145.674 252.614 142.225 248.556 138.766 244.408C140.702 241.501 143.038 238.563 145.505 235.763C148.315 232.573 151.281 229.577 153.986 227.028Z" fill="#0197E3"/>
    <path d="M153.586 226.236C150.988 221.157 147.952 216.52 144.413 212.625C138.12 205.697 130.798 200.573 123.422 196.833C123.3 203.011 123.966 209.667 125.878 216.473C127.833 223.429 130.83 226.193 133.678 226.941L133.686 226.943C135.685 225.456 137.334 224.35 138.672 223.552C139.671 222.957 140.503 222.53 141.183 222.245C141.858 221.963 142.408 221.809 142.837 221.782C143.25 221.757 143.688 221.847 143.91 222.23C144.114 222.582 144.018 223.001 143.876 223.331C143.577 224.025 142.835 224.877 141.852 225.651C139.962 227.137 136.969 228.494 133.878 227.863C132.989 228.529 132.03 229.271 130.997 230.095C130.158 230.764 129.376 231.45 128.649 232.152C129.529 233.219 130.413 234.294 131.3 235.372C133.587 238.153 135.894 240.957 138.198 243.726C140.14 240.835 142.452 237.94 144.866 235.199C147.759 231.916 150.813 228.838 153.586 226.236Z" fill="#0197E3"/>
    <path d="M112.352 192.179C115.699 193.321 119.141 194.718 122.579 196.412C122.419 202.781 123.081 209.662 125.059 216.703C126.926 223.351 129.804 226.499 132.845 227.576C132.098 228.143 131.306 228.759 130.467 229.428C129.625 230.1 128.839 230.789 128.106 231.493C126.565 229.624 125.037 227.779 123.53 225.975C121.158 223.138 118.837 220.404 116.594 217.847C116.931 216.021 116.86 214.213 116.2 212.583C115.505 210.868 114.174 209.389 112.065 208.305C110.116 207.303 107.977 206.722 105.718 206.479C105.586 206.359 105.455 206.241 105.324 206.124C107.352 201.354 109.773 196.645 112.352 192.179Z" fill="#0197E3"/>
    <path d="M111.528 191.903C101.435 188.568 92.2837 187.537 86.8092 187.631C84.346 193.163 81.6972 202.304 81.2787 212.554C83.5099 211.449 85.8406 210.413 88.2088 209.515C90.6191 208.601 93.079 207.828 95.5195 207.273C95.3885 207.149 95.2606 207.027 95.1359 206.905C93.9518 205.753 93.0334 204.693 92.5019 203.78C91.9902 202.901 91.7387 201.979 92.2654 201.272C92.5182 200.932 92.9109 200.706 93.392 200.564C93.874 200.422 94.4778 200.354 95.2023 200.354C96.7851 200.354 98.6167 201.124 100.62 202.429C101.879 203.25 103.228 204.296 104.652 205.531C106.651 200.862 109.016 196.264 111.528 191.903Z" fill="#0197E3"/>
    <path d="M114.911 220.535C110.836 217.885 106.612 215.002 102.955 212.272C103.53 210.599 104.165 208.925 104.851 207.257C105.019 207.269 105.186 207.283 105.353 207.299C105.793 207.702 106.241 208.123 106.696 208.559C109.467 211.219 112.487 214.468 115.677 218.093C115.5 218.902 115.24 219.721 114.911 220.535Z" fill="#0197E3"/>
    <path d="M102.241 211.734C102.765 210.225 103.337 208.715 103.95 207.21C101.827 207.14 99.6014 207.347 97.3298 207.769C98.1401 208.481 99.0369 209.227 100.002 209.997C100.714 210.565 101.463 211.146 102.241 211.734Z" fill="#0197E3"/>
    <path d="M104.296 206.371L104.302 206.357C102.823 205.061 101.436 203.977 100.155 203.143C98.1939 201.865 96.534 201.206 95.2023 201.206C94.5231 201.206 94.008 201.271 93.6325 201.381C93.2562 201.492 93.053 201.639 92.948 201.781C92.7592 202.034 92.745 202.505 93.2373 203.351C93.7099 204.163 94.5621 205.159 95.7293 206.294C95.9841 206.542 96.253 206.796 96.5349 207.055C99.1861 206.519 101.803 206.257 104.296 206.371Z" fill="#0197E3"/>
    <path d="M115.638 221.007C115.931 220.3 116.176 219.587 116.363 218.876C117.939 220.68 119.554 222.57 121.2 224.523C119.44 223.436 117.561 222.25 115.638 221.007Z" fill="#0197E3"/>
    <path d="M115.411 212.903C115.918 214.155 116.043 215.552 115.862 217.015C112.828 213.584 109.945 210.498 107.285 207.944C107.125 207.79 106.965 207.638 106.806 207.488C108.535 207.776 110.17 208.289 111.676 209.063C113.625 210.065 114.802 211.399 115.411 212.903Z" fill="#0197E3"/>
    <path d="M141.326 224.981C139.716 226.247 137.327 227.353 134.851 227.143C136.538 225.912 137.947 224.976 139.108 224.285C140.084 223.702 140.879 223.296 141.512 223.031C142.151 222.764 142.599 222.651 142.89 222.633C143.075 222.621 143.149 222.649 143.173 222.662C143.177 222.687 143.185 222.783 143.095 222.993C142.877 223.498 142.261 224.245 141.326 224.981Z" fill="#0197E3"/>
    <path d="M143.18 222.666C143.182 222.669 143.183 222.669 143.183 222.669L143.182 222.668L143.18 222.666Z" fill="#0197E3"/>
    <path d="M121.123 245.096C122.159 240.722 124.337 236.53 128.042 232.754C128.895 233.789 129.753 234.832 130.613 235.878L130.629 235.897L130.63 235.899C132.975 238.75 135.343 241.627 137.707 244.468C135.728 247.514 134.185 250.54 133.393 253.359C132.638 256.046 132.432 258.496 132.709 260.671C129.119 260.763 125.44 261.147 121.851 261.919L121.844 261.891C120.307 256.28 119.836 250.534 121.123 245.096Z" fill="#0197E3"/>
    <path d="M134.212 253.589C134.958 250.936 136.404 248.067 138.278 245.153C141.688 249.239 145.088 253.236 148.404 256.95C150.61 259.42 152.781 261.768 154.896 263.937C151.413 262.606 146.471 261.473 140.915 260.954C138.56 260.734 136.088 260.623 133.564 260.655C133.285 258.581 133.474 256.218 134.212 253.589Z" fill="#0197E3"/>
    <path d="M140.836 261.802C147.496 262.425 153.2 263.932 156.498 265.554C157.472 266.522 158.431 267.447 159.376 268.325C159.319 268.492 159.189 268.675 158.938 268.871C158.546 269.179 157.9 269.482 156.937 269.75C149.107 271.927 142.453 271.248 138.265 268.382C135.92 266.777 134.312 264.461 133.707 261.506C136.152 261.48 138.548 261.588 140.836 261.802Z" fill="#0197E3"/>
    <path d="M164.609 216.668C164.464 210.533 164.684 204.577 165.385 199.023C166.961 186.543 170.249 175.786 174.035 166.998C177.409 168.143 181.127 170.754 184.322 175.973C185.501 177.899 186.345 179.921 186.92 181.975C186.496 183.309 186.134 184.736 185.826 186.213C184.42 192.949 184.113 200.845 184.26 206.061L185.066 206.24C186.477 203.414 188.16 198.51 188.651 192.935C188.958 189.447 188.8 185.682 187.808 181.994C188.318 180.43 188.913 179.019 189.602 177.829C190.893 175.598 192.473 174.217 194.388 173.977C194.817 173.924 195.13 174.018 195.375 174.216C195.633 174.424 195.859 174.781 196.028 175.328C196.369 176.43 196.43 178.137 196.231 180.358C195.834 184.783 194.429 191.042 192.478 198.075C190.398 205.573 187.706 213.923 184.982 221.814C182.575 224.207 180.924 226.815 179.828 229.369C178.086 226.671 175.88 224.042 173.128 221.542C170.751 219.383 168.878 217.98 167.44 217.234C166.722 216.861 166.087 216.639 165.536 216.582C165.201 216.547 164.889 216.573 164.609 216.668Z" fill="#0197E3"/>
    <path d="M164.944 223.991C164.802 221.851 164.697 219.721 164.634 217.612C164.805 217.472 165.056 217.389 165.448 217.429C165.852 217.471 166.379 217.643 167.049 217.99C168.387 218.685 170.195 220.029 172.556 222.173C175.424 224.779 177.685 227.525 179.436 230.342C177.888 234.444 177.731 238.313 178.124 240.806L178.371 242.376L178.941 240.893C179.741 238.813 180.595 236.545 181.482 234.143C183.879 239.361 184.728 244.71 184.622 249.766C184.484 256.263 182.766 262.276 180.715 266.894C180.12 268.039 179.537 269.149 178.97 270.217C179.5 264.5 179.5 259 179 255.5C178.5 252 167.877 233.524 165.32 225.266C165.184 224.827 165.058 224.401 164.944 223.991Z" fill="#0197E3"/>
    <path d="M165.226 227.696C167.324 252.215 173.948 277.436 178.106 289.921L176.79 277.626C185.27 266.355 203.108 236.261 206.617 206.049C210.126 175.838 196.967 150.72 189.949 141.938C186.136 145.585 179.791 153.91 174.377 166.214C177.912 167.431 181.764 170.164 185.048 175.527C186.052 177.167 186.82 178.87 187.391 180.601C187.825 179.431 188.314 178.353 188.865 177.401C190.218 175.064 191.987 173.419 194.283 173.132C194.907 173.054 195.46 173.19 195.909 173.553C196.346 173.905 196.644 174.438 196.841 175.076C197.234 176.345 197.28 178.191 197.079 180.435C196.675 184.941 195.251 191.262 193.298 198.303C191.344 205.346 188.854 213.134 186.303 220.589C188.405 218.773 190.994 217.119 194.168 215.757C196.042 214.953 197.533 214.827 198.585 215.5C199.637 216.173 200.063 217.526 200.115 219.197C200.219 222.562 198.825 227.812 196.644 233.848C192.897 244.217 186.753 257.107 181.481 267.265C180.65 269.133 179.765 270.779 178.904 272.144L178.119 273.391C178.119 273.391 178.983 259.5 178.119 255.776C177.254 252.052 168.102 235.939 165.226 227.696Z" fill="#0197E3"/>
    <path d="M186.659 186.387C186.858 185.434 187.078 184.508 187.322 183.619C187.98 186.738 188.065 189.891 187.803 192.86C187.411 197.316 186.24 201.332 185.079 204.146C185.05 199.071 185.432 192.269 186.659 186.387Z" fill="#0197E3"/>
    <path d="M180.382 230.255C181.238 228.109 182.496 225.903 184.287 223.815C183.302 226.634 182.319 229.379 181.366 231.988C181.058 231.408 180.73 230.83 180.382 230.255Z" fill="#0197E3"/>
    <path d="M180.001 231.282C180.345 231.877 180.667 232.474 180.968 233.074C180.22 235.109 179.493 237.053 178.801 238.875C178.732 236.775 179.029 234.106 180.001 231.282Z" fill="#0197E3"/>
    <path d="M185.473 249.784C185.39 253.709 184.742 257.458 183.792 260.843C188.227 251.946 192.822 241.921 195.843 233.558C198.027 227.515 199.363 222.406 199.264 219.224C199.214 217.621 198.806 216.653 198.127 216.218C197.448 215.784 196.313 215.764 194.503 216.541C190.813 218.124 187.939 220.112 185.72 222.285C184.43 226.016 183.134 229.642 181.894 233.024C184.624 238.607 185.587 244.363 185.473 249.784Z" fill="#0197E3"/>
    <path d="M141.26 295.769C141.26 290.357 145.642 285.969 151.049 285.969H194.635C200.042 285.969 204.424 290.357 204.424 295.769V382.436C204.424 387.848 200.042 392.236 194.635 392.236H151.049C145.642 392.236 141.26 387.848 141.26 382.436V295.769Z" fill="#F8D989"/>
    <defs>
        <filter id="filter0_d_8842_1991" x="182" y="52.0002" width="130.841" height="135.635" filterUnits="userSpaceOnUse" color-interpolation-filters="sRGB">
            <feFlood flood-opacity="0" result="BackgroundImageFix"/>
            <feColorMatrix in="SourceAlpha" type="matrix" values="0 0 0 0 0 0 0 0 0 0 0 0 0 0 0 0 0 0 127 0" result="hardAlpha"/>
            <feOffset dx="-4" dy="4"/>
            <feGaussianBlur stdDeviation="6"/>
            <feColorMatrix type="matrix" values="0 0 0 0 0 0 0 0 0 0 0 0 0 0 0 0 0 0 0.3 0"/>
            <feBlend mode="normal" in2="BackgroundImageFix" result="effect1_dropShadow_8842_1991"/>
            <feBlend mode="normal" in="SourceGraphic" in2="effect1_dropShadow_8842_1991" result="shape"/>
        </filter>
        <filter id="filter1_d_8842_1991" x="182" y="133" width="130.841" height="135.635" filterUnits="userSpaceOnUse" color-interpolation-filters="sRGB">
            <feFlood flood-opacity="0" result="BackgroundImageFix"/>
            <feColorMatrix in="SourceAlpha" type="matrix" values="0 0 0 0 0 0 0 0 0 0 0 0 0 0 0 0 0 0 127 0" result="hardAlpha"/>
            <feOffset dx="-4" dy="4"/>
            <feGaussianBlur stdDeviation="6"/>
            <feColorMatrix type="matrix" values="0 0 0 0 0 0 0 0 0 0 0 0 0 0 0 0 0 0 0.3 0"/>
            <feBlend mode="normal" in2="BackgroundImageFix" result="effect1_dropShadow_8842_1991"/>
            <feBlend mode="normal" in="SourceGraphic" in2="effect1_dropShadow_8842_1991" result="shape"/>
        </filter>
        <filter id="filter2_d_8842_1991" x="302" y="6.00018" width="130.841" height="135.635" filterUnits="userSpaceOnUse" color-interpolation-filters="sRGB">
            <feFlood flood-opacity="0" result="BackgroundImageFix"/>
            <feColorMatrix in="SourceAlpha" type="matrix" values="0 0 0 0 0 0 0 0 0 0 0 0 0 0 0 0 0 0 127 0" result="hardAlpha"/>
            <feOffset dx="-4" dy="4"/>
            <feGaussianBlur stdDeviation="6"/>
            <feColorMatrix type="matrix" values="0 0 0 0 0 0 0 0 0 0 0 0 0 0 0 0 0 0 0.3 0"/>
            <feBlend mode="normal" in2="BackgroundImageFix" result="effect1_dropShadow_8842_1991"/>
            <feBlend mode="normal" in="SourceGraphic" in2="effect1_dropShadow_8842_1991" result="shape"/>
        </filter>
        <filter id="filter3_d_8842_1991" x="302" y="87.0002" width="130.841" height="135.635" filterUnits="userSpaceOnUse" color-interpolation-filters="sRGB">
            <feFlood flood-opacity="0" result="BackgroundImageFix"/>
            <feColorMatrix in="SourceAlpha" type="matrix" values="0 0 0 0 0 0 0 0 0 0 0 0 0 0 0 0 0 0 127 0" result="hardAlpha"/>
            <feOffset dx="-4" dy="4"/>
            <feGaussianBlur stdDeviation="6"/>
            <feColorMatrix type="matrix" values="0 0 0 0 0 0 0 0 0 0 0 0 0 0 0 0 0 0 0.3 0"/>
            <feBlend mode="normal" in2="BackgroundImageFix" result="effect1_dropShadow_8842_1991"/>
            <feBlend mode="normal" in="SourceGraphic" in2="effect1_dropShadow_8842_1991" result="shape"/>
        </filter>
        <filter id="filter4_d_8842_1991" x="249" y="67.9998" width="108.767" height="144.16" filterUnits="userSpaceOnUse" color-interpolation-filters="sRGB">
            <feFlood flood-opacity="0" result="BackgroundImageFix"/>
            <feColorMatrix in="SourceAlpha" type="matrix" values="0 0 0 0 0 0 0 0 0 0 0 0 0 0 0 0 0 0 127 0" result="hardAlpha"/>
            <feOffset dx="-10" dy="6"/>
            <feGaussianBlur stdDeviation="11"/>
            <feColorMatrix type="matrix" values="0 0 0 0 0.00833333 0 0 0 0 0.00833333 0 0 0 0 0.00833333 0 0 0 0.4 0"/>
            <feBlend mode="normal" in2="BackgroundImageFix" result="effect1_dropShadow_8842_1991"/>
            <feBlend mode="normal" in="SourceGraphic" in2="effect1_dropShadow_8842_1991" result="shape"/>
        </filter>
    </defs>
</svg>
