<svg width="19px" height="19px" viewBox="0 0 19 19" version="1.1" xmlns="http://www.w3.org/2000/svg" xmlns:xlink="http://www.w3.org/1999/xlink">
    <g stroke="none" stroke-width="1" fill="none" fill-rule="evenodd">
        <g transform="translate(-957.000000, -6119.000000)" fill="#D8D8D8" fill-rule="nonzero">
            <g transform="translate(0.000000, 5835.000000)">
                <g transform="translate(957.000000, 283.000000)">
                    <g>
                        <g transform="translate(0.000000, 1.000000)">
                            <path d="M19,0 L0,0 L0,19 L9.5,19 L9.5,11.8222222 L7.17777778,11.8222222 L7.17777778,8.65555556 L9.5,8.65555556 L9.5,7.42182222 C9.5,5.29403333 11.0976889,3.37777778 13.0625,3.37777778 L15.6222222,3.37777778 L15.6222222,6.54444444 L13.0625,6.54444444 C12.7823556,6.54444444 12.4555556,6.88454444 12.4555556,7.39395556 L12.4555556,8.65555556 L15.6222222,8.65555556 L15.6222222,11.8222222 L12.4555556,11.8222222 L12.4555556,19 L19,19 L19,0 Z" id="Facebook__x28_alt_x29_"></path>
                        </g>
                    </g>
                </g>
            </g>
        </g>
    </g>
</svg>
