<svg width="136px" height="29px" viewBox="0 0 136 29" xmlns="http://www.w3.org/2000/svg"
     xmlns:xlink="http://www.w3.org/1999/xlink" class="logo">
    <defs>
        <polygon id="path-1" points="0 30 135.85113 30 135.85113 1.25331325 0 1.25331325"></polygon>
    </defs>
    <g id="Symbols" stroke="none" stroke-width="1" fill="none" fill-rule="evenodd">
        <g id="Header" transform="translate(-80.000000, -20.000000)">
            <g id="Page-1">
                <g transform="translate(80.000000, 20.000000)">
                    <polygon id="Fill-1" fill="#053A78" points="39 14 42 14 42 1 39 1"></polygon>
                    <polygon id="Fill-2" fill="#053A78"
                             points="54 3.85987296 50.5384053 3.85987296 50.5384053 14 47.4612293 14 47.4612293 3.85987296 44 3.85987296 44 1 54 1"></polygon>
                    <g id="Group-27">
                        <path d="M58.8292174,9.41070964 L58.8292174,0.694986747 L61.757913,0.694986747 L61.757913,9.15320361 C61.757913,10.1276735 62.2156522,10.9553964 63.7714783,10.9553964 C65.3276522,10.9553964 65.7853913,10.1276735 65.7853913,9.15320361 L65.7853913,0.694986747 L68.714087,0.694986747 L68.714087,9.41070964 C68.714087,12.1688542 66.5906087,13.8236012 63.7714783,13.8236012 C60.9526957,13.8236012 58.8292174,12.1688542 58.8292174,9.41070964 Z"
                              id="Fill-3" fill="#053A78"></path>
                        <polygon id="Fill-5" fill="#053A78"
                                 points="76.4010783 13.5663048 73.4723826 9.50246145 73.4723826 13.5663048 70.7266435 13.5663048 70.7266435 0.694846988 73.4723826 0.694846988 73.4723826 8.39941325 76.2181217 4.37260602 79.4216 4.37260602 76.0897739 8.96928072 79.5130783 13.5663048"></polygon>
                        <path d="M86.0102609,4.18850843 L86.0102609,7.31421928 C84.8753043,7.13043614 83.2645217,7.59024337 83.2645217,9.41060482 L83.2645217,13.5663398 L80.5187826,13.5663398 L80.5187826,4.37229157 L83.2645217,4.37229157 L83.2645217,6.00886988 C83.6307826,4.77689398 84.8572174,4.18850843 86.0102609,4.18850843"
                              id="Fill-7" fill="#053A78"></path>
                        <path d="M93.6614261,8.9691759 C93.6614261,7.59045301 92.7459478,6.72604337 91.4829913,6.72604337 C90.2200348,6.72604337 89.3049043,7.59045301 89.3049043,8.9691759 C89.3049043,10.3482482 90.2200348,11.2126578 91.4829913,11.2126578 C92.7459478,11.2126578 93.6614261,10.3482482 93.6614261,8.9691759 Z M96.4071652,4.3725012 L96.4071652,13.5662 L93.6614261,13.5662 L93.6614261,12.7021398 C93.0572522,13.4009349 92.1605565,13.823706 90.9337739,13.823706 C88.5358609,13.823706 86.5588174,11.7091518 86.5588174,8.9691759 C86.5588174,6.2295494 88.5358609,4.11464578 90.9337739,4.11464578 C92.1605565,4.11464578 93.0572522,4.53776627 93.6614261,5.23656145 L93.6614261,4.3725012 L96.4071652,4.3725012 Z"
                              id="Fill-9" fill="#053A78"></path>
                        <mask id="mask-2" fill="white">
                            <use xlink:href="#path-1"></use>
                        </mask>
                        <g id="Clip-12"></g>
                        <path d="M98.4194783,13.5660602 L101.165217,13.5660602 L101.165217,4.37236145 L98.4194783,4.37236145 L98.4194783,13.5660602 Z M98.1446957,1.90840964 C98.1446957,1.00766265 98.8953043,0.253313253 99.7923478,0.253313253 C100.689391,0.253313253 101.439652,1.00766265 101.439652,1.90840964 C101.439652,2.80950602 100.689391,3.56315663 99.7923478,3.56315663 C98.8953043,3.56315663 98.1446957,2.80950602 98.1446957,1.90840964 Z"
                              id="Fill-11" fill="#053A78" mask="url(#mask-2)"></path>
                        <path d="M111.964939,7.92133253 L111.964939,13.5662 L109.2192,13.5662 L109.2192,8.32558554 C109.2192,7.1858506 108.505113,6.65232048 107.626504,6.65232048 C106.619896,6.65232048 105.924243,7.24105542 105.924243,8.54640482 L105.924243,13.5662 L103.178504,13.5662 L103.178504,4.3725012 L105.924243,4.3725012 L105.924243,5.23656145 C106.418504,4.55628434 107.333635,4.11464578 108.541983,4.11464578 C110.390678,4.11464578 111.964939,5.43886265 111.964939,7.92133253"
                              id="Fill-13" fill="#053A78" mask="url(#mask-2)"></path>
                        <path d="M120.182991,8.01311928 C119.890122,6.94640843 119.06647,6.56067349 118.24247,6.56067349 C117.199339,6.56067349 116.503687,7.07533614 116.247339,8.01311928 L120.182991,8.01311928 Z M118.498817,11.3596494 C119.249426,11.3596494 119.890122,11.0654566 120.256035,10.6608542 L122.452904,11.9298663 C121.555861,13.1800108 120.201426,13.8236012 118.462296,13.8236012 C115.332209,13.8236012 113.391687,11.709047 113.391687,8.96907108 C113.391687,6.22979398 115.36873,4.11489036 118.260904,4.11489036 C120.9336,4.11489036 122.910643,6.19275783 122.910643,8.96907108 C122.910643,9.35550482 122.873774,9.72342048 122.80073,10.0728181 L116.302296,10.0728181 C116.650122,11.0287699 117.492209,11.3596494 118.498817,11.3596494 Z"
                              id="Fill-14" fill="#053A78" mask="url(#mask-2)"></path>
                        <path d="M45.9623652,23.961547 L44.4614957,19.236294 L42.9602783,23.961547 L45.9623652,23.961547 Z M46.8409739,26.720041 L42.0816696,26.720041 L41.4409739,28.7427036 L38.2374957,28.7427036 L42.5940174,15.8712458 L46.3282783,15.8712458 L50.6851478,28.7427036 L47.4816696,28.7427036 L46.8409739,26.720041 Z"
                              id="Fill-15" fill="#053A78" mask="url(#mask-2)"></path>
                        <path d="M58.7018435,25.9842446 C58.7018435,28.0991482 56.8712348,28.9998952 54.8945391,28.9998952 C53.0639304,28.9998952 51.6726261,28.3014494 50.958887,26.8116181 L53.3383652,25.4514133 C53.5762783,26.149859 54.0889739,26.5359434 54.8945391,26.5359434 C55.5533217,26.5359434 55.8830609,26.3336422 55.8830609,25.9660759 C55.8830609,24.9549193 51.3797565,25.4877506 51.3797565,22.3068349 C51.3797565,20.302341 53.0639304,19.2911843 54.9675826,19.2911843 C56.4503652,19.2911843 57.7682783,19.9529434 58.5369739,21.2589916 L56.1940174,22.5273048 C55.9376696,22.0493289 55.5717565,21.7184494 54.9675826,21.7184494 C54.4917565,21.7184494 54.198887,21.9022325 54.198887,22.2334614 C54.198887,23.2813048 58.7018435,22.582859 58.7018435,25.9842446"
                              id="Fill-16" fill="#053A78" mask="url(#mask-2)"></path>
                        <path d="M66.7186783,25.9842446 C66.7186783,28.0991482 64.8880696,28.9998952 62.9113739,28.9998952 C61.0807652,28.9998952 59.6894609,28.3014494 58.9757217,26.8116181 L61.3552,25.4514133 C61.593113,26.149859 62.1058087,26.5359434 62.9113739,26.5359434 C63.5701565,26.5359434 63.8998957,26.3336422 63.8998957,25.9660759 C63.8998957,24.9549193 59.3965913,25.4877506 59.3965913,22.3068349 C59.3965913,20.302341 61.0807652,19.2911843 62.9844174,19.2911843 C64.4672,19.2911843 65.785113,19.9529434 66.5538087,21.2589916 L64.2108522,22.5273048 C63.9545043,22.0493289 63.5882435,21.7184494 62.9844174,21.7184494 C62.5085913,21.7184494 62.2157217,21.9022325 62.2157217,22.2334614 C62.2157217,23.2813048 66.7186783,22.582859 66.7186783,25.9842446"
                              id="Fill-17" fill="#053A78" mask="url(#mask-2)"></path>
                        <path d="M74.4975304,24.1454699 C74.4975304,22.8401205 73.5824,21.9757108 72.392487,21.9757108 C71.2025739,21.9757108 70.2874435,22.8401205 70.2874435,24.1454699 C70.2874435,25.4511687 71.2025739,26.3152289 72.392487,26.3152289 C73.5824,26.3152289 74.4975304,25.4511687 74.4975304,24.1454699 M67.5413565,24.1454699 C67.5413565,21.4058434 69.7017043,19.2909398 72.392487,19.2909398 C75.0832696,19.2909398 77.2432696,21.4058434 77.2432696,24.1454699 C77.2432696,26.8854458 75.0832696,29 72.392487,29 C69.7017043,29 67.5413565,26.8854458 67.5413565,24.1454699"
                              id="Fill-18" fill="#053A78" mask="url(#mask-2)"></path>
                        <path d="M78.3407652,24.1454699 C78.3407652,21.4058434 80.409287,19.2909398 83.1915478,19.2909398 C84.9672,19.2909398 86.5414609,20.2290723 87.3285913,21.6448313 L84.9306783,23.0424217 C84.6193739,22.3988313 83.9605913,22.012747 83.1550261,22.012747 C81.965113,22.012747 81.0868522,22.8768072 81.0868522,24.1454699 C81.0868522,25.4144819 81.965113,26.2785422 83.1550261,26.2785422 C83.9605913,26.2785422 84.6378087,25.8924578 84.9306783,25.2488675 L87.3285913,26.6279398 C86.5414609,28.0622169 84.9856348,29 83.1915478,29 C80.409287,29 78.3407652,26.8854458 78.3407652,24.1454699"
                              id="Fill-19" fill="#053A78" mask="url(#mask-2)"></path>
                        <path d="M88.426087,28.742494 L91.1718261,28.742494 L91.1718261,19.5487952 L88.426087,19.5487952 L88.426087,28.742494 Z M88.1513043,17.084494 C88.1513043,16.183747 88.901913,15.429747 89.7989565,15.429747 C90.696,15.429747 91.4466087,16.183747 91.4466087,17.084494 C91.4466087,17.9855904 90.696,18.7395904 89.7989565,18.7395904 C88.901913,18.7395904 88.1513043,17.9855904 88.1513043,17.084494 Z"
                              id="Fill-20" fill="#053A78" mask="url(#mask-2)"></path>
                        <path d="M99.829913,24.1454699 C99.829913,22.766747 98.9144348,21.9023373 97.6514783,21.9023373 C96.3885217,21.9023373 95.4733913,22.766747 95.4733913,24.1454699 C95.4733913,25.5245422 96.3885217,26.3889518 97.6514783,26.3889518 C98.9144348,26.3889518 99.829913,25.5245422 99.829913,24.1454699 Z M102.575652,19.5487952 L102.575652,28.742494 L99.829913,28.742494 L99.829913,27.8784337 C99.2257391,28.5772289 98.3290435,29 97.1022609,29 C94.7043478,29 92.7273043,26.8854458 92.7273043,24.1454699 C92.7273043,21.4058434 94.7043478,19.2909398 97.1022609,19.2909398 C98.3290435,19.2909398 99.2257391,19.7140602 99.829913,20.4128554 L99.829913,19.5487952 L102.575652,19.5487952 Z"
                              id="Fill-21" fill="#053A78" mask="url(#mask-2)"></path>
                        <path d="M108.065983,22.1964952 L108.065983,25.4511337 C108.065983,26.2418205 108.7432,26.315194 109.951548,26.2418205 L109.951548,28.742459 C106.363722,29.1103747 105.320243,28.0254952 105.320243,25.4511337 L105.320243,22.1964952 L103.855896,22.1964952 L103.855896,19.5487602 L105.320243,19.5487602 L105.320243,17.8017723 L108.065983,16.9743988 L108.065983,19.5487602 L109.951548,19.5487602 L109.951548,22.1964952 L108.065983,22.1964952 Z"
                              id="Fill-22" fill="#053A78" mask="url(#mask-2)"></path>
                        <path d="M111.506435,28.742494 L114.252174,28.742494 L114.252174,19.5487952 L111.506435,19.5487952 L111.506435,28.742494 Z M111.232,17.084494 C111.232,16.183747 111.982609,15.429747 112.879652,15.429747 C113.776348,15.429747 114.526957,16.183747 114.526957,17.084494 C114.526957,17.9855904 113.776348,18.7395904 112.879652,18.7395904 C111.982609,18.7395904 111.232,17.9855904 111.232,17.084494 Z"
                              id="Fill-23" fill="#053A78" mask="url(#mask-2)"></path>
                        <path d="M122.764,24.1454699 C122.764,22.8401205 121.84887,21.9757108 120.658957,21.9757108 C119.469043,21.9757108 118.553913,22.8401205 118.553913,24.1454699 C118.553913,25.4511687 119.469043,26.3152289 120.658957,26.3152289 C121.84887,26.3152289 122.764,25.4511687 122.764,24.1454699 M115.807826,24.1454699 C115.807826,21.4058434 117.968174,19.2909398 120.658957,19.2909398 C123.349739,19.2909398 125.510087,21.4058434 125.510087,24.1454699 C125.510087,26.8854458 123.349739,29 120.658957,29 C117.968174,29 115.807826,26.8854458 115.807826,24.1454699"
                              id="Fill-24" fill="#053A78" mask="url(#mask-2)"></path>
                        <path d="M135.851304,23.0976265 L135.851304,28.742494 L133.105565,28.742494 L133.105565,23.5018795 C133.105565,22.3621446 132.391478,21.8286145 131.51287,21.8286145 C130.506261,21.8286145 129.810609,22.4173494 129.810609,23.7226988 L129.810609,28.742494 L127.06487,28.742494 L127.06487,19.5487952 L129.810609,19.5487952 L129.810609,20.4128554 C130.30487,19.7325783 131.22,19.2909398 132.428348,19.2909398 C134.277043,19.2909398 135.851304,20.6151566 135.851304,23.0976265"
                              id="Fill-25" fill="#053A78" mask="url(#mask-2)"></path>
                        <path d="M24.8455652,25.5089241 L21.736,25.5089241 C17.3749565,25.5089241 13.8271304,21.9447193 13.8271304,17.5639723 L13.8271304,14.4407072 L19.2883478,14.4407072 L19.2883478,17.5639723 C19.2883478,18.9196349 20.3864348,20.0230325 21.736,20.0230325 L24.8455652,20.0230325 L24.8455652,25.5089241 Z M13.834087,3.5125988 L19.304,3.5125988 L19.304,9.0075747 L24.773913,9.0075747 L24.773913,14.5018518 L19.304,14.5018518 L19.304,9.0075747 L13.834087,9.0075747 L13.834087,3.5125988 Z M0,28.4326831 L27.3227826,28.4326831 L27.3227826,0.986454217 L0,0.986454217 L0,28.4326831 Z"
                              id="Fill-26" fill="#0097E3" mask="url(#mask-2)"></path>
                    </g>
                </g>
            </g>
        </g>
    </g>
</svg>
